<?xml version="1.0" standalone="no"?>
<!DOCTYPE svg PUBLIC "-//W3C//DTD SVG 20010904//EN"
 "http://www.w3.org/TR/2001/REC-SVG-20010904/DTD/svg10.dtd">
<svg version="1.0" xmlns="http://www.w3.org/2000/svg"
 width="600.000000pt" height="600.000000pt" viewBox="0 0 600.000000 600.000000"
 preserveAspectRatio="xMidYMid meet">
<metadata>
Created by potrace 1.11, written by Peter Selinger 2001-2013
</metadata>
<g transform="translate(0.000000,600.000000) scale(0.100000,-0.100000)"
fill="#000000" stroke="none">
<path d="M7 5994 c-4 -4 -7 -1348 -7 -2986 l0 -2978 21 0 c11 0 18 -4 14 -10
-3 -5 -13 -7 -23 -4 -14 5 -15 4 -2 -5 11 -8 881 -11 3002 -11 l2988 0 0 1780
c-1 1560 -2 1780 -15 1780 -9 0 -15 -10 -15 -25 0 -17 -4 -23 -14 -19 -9 4
-16 -3 -19 -18 -4 -21 -4 -20 -6 5 0 15 -5 27 -10 27 -5 0 -8 -7 -7 -16 0 -9
-9 -20 -21 -25 -21 -8 -23 -5 -23 22 0 18 -4 28 -10 24 -6 -3 -10 -17 -10 -31
0 -13 -5 -24 -11 -24 -8 0 -9 11 -5 33 4 23 3 28 -4 17 -5 -8 -10 -33 -11 -55
l-1 -40 -11 45 c-13 50 -37 60 -48 20 l-7 -25 -1 26 c-1 22 -6 27 -28 27 -15
0 -29 5 -31 11 -6 17 -22 13 -22 -5 0 -8 -5 -12 -11 -8 -6 3 -8 17 -5 29 3 13
2 26 -3 30 -5 3 -11 -5 -14 -17 l-4 -23 -10 25 c-10 24 -11 24 -19 5 -7 -17
-9 -16 -16 10 -4 17 -3 34 3 41 7 8 7 14 -1 19 -5 3 -10 -1 -10 -9 0 -25 -20
-19 -21 7 -1 15 -4 11 -10 -13 -4 -19 -6 -41 -4 -47 2 -7 0 -13 -5 -13 -6 0
-10 5 -10 11 0 6 -7 9 -15 5 -11 -4 -15 1 -15 17 0 16 -3 19 -9 8 -7 -11 -10
-9 -15 7 -4 12 -13 19 -20 16 -8 -3 -12 5 -11 23 0 15 -2 46 -6 68 l-6 40 -2
-45 c-2 -39 -4 -42 -12 -22 -5 13 -13 21 -18 18 -5 -4 -12 7 -16 24 -7 31 -20
39 -28 18 -3 -7 -6 1 -6 19 -1 25 -5 31 -16 27 -11 -4 -15 0 -15 16 0 16 -4
20 -15 16 -8 -3 -15 -1 -15 4 0 6 7 10 15 10 8 0 15 7 15 15 0 9 -6 12 -15 9
-10 -4 -15 0 -15 11 0 9 -5 13 -11 9 -6 -3 -8 -17 -5 -30 4 -14 2 -24 -4 -24
-6 0 -11 28 -11 63 -1 61 -2 62 -9 17 -4 -24 -5 -53 -2 -62 2 -10 -1 -18 -7
-18 -7 0 -11 28 -11 81 0 71 -2 80 -15 69 -13 -11 -15 -8 -16 21 0 19 -4 43
-9 54 -6 13 -9 -11 -11 -75 l-3 -95 -3 83 c-4 92 -20 110 -26 30 -2 -29 -4 12
-6 92 -1 88 -5 137 -10 125 -5 -11 -9 -51 -9 -89 0 -37 -3 -70 -6 -74 -3 -3
-6 35 -6 84 0 49 -5 96 -10 104 -7 10 -9 -7 -7 -55 4 -83 -6 -121 -13 -52 -3
26 -9 47 -14 46 -5 0 -13 5 -17 13 -7 10 -9 8 -10 -7 -1 -11 -3 -24 -4 -30 -2
-5 -3 -39 -4 -74 0 -35 -4 -61 -7 -58 -4 4 -7 53 -7 109 1 89 3 103 17 100 12
-2 16 5 15 25 0 15 -3 22 -6 16 -2 -7 -13 -13 -24 -13 -10 0 -19 -5 -19 -11 0
-6 -7 -9 -15 -5 -11 4 -15 -2 -16 -22 -1 -17 -3 -20 -6 -9 -6 24 -25 22 -21
-3 2 -10 -1 -19 -7 -19 -5 0 -10 7 -11 17 -1 9 -2 27 -3 40 0 13 -5 21 -10 18
-5 -3 -8 -25 -6 -49 2 -23 4 -48 4 -56 1 -7 7 -11 16 -7 8 3 15 1 15 -4 0 -11
-11 -13 -34 -4 -10 4 -16 18 -16 36 0 16 -4 27 -8 24 -4 -2 -7 -30 -6 -60 1
-31 -2 -56 -7 -56 -5 0 -9 14 -9 31 0 27 -2 30 -15 19 -13 -10 -15 -9 -15 9 0
18 4 21 20 16 14 -4 20 -2 20 8 0 8 -9 17 -20 20 -14 3 -20 14 -20 31 0 16 -6
26 -14 26 -14 0 -28 38 -23 62 2 7 2 10 0 6 -3 -5 -9 -8 -14 -8 -6 0 -8 18 -3
45 4 29 3 45 -4 45 -17 0 -26 -22 -12 -30 7 -4 9 -13 6 -19 -11 -17 -26 -3
-26 23 0 13 -7 29 -15 36 -18 15 -20 44 -2 35 6 -4 3 1 -7 9 -11 9 -23 16 -28
16 -4 0 -8 9 -8 20 0 11 -3 20 -7 20 -5 0 -24 14 -43 30 -22 19 -28 28 -15 24
11 -4 25 -11 31 -16 7 -5 65 -27 130 -49 66 -22 123 -44 128 -49 5 -5 15 -6
22 -3 8 3 14 0 14 -6 0 -6 -8 -11 -17 -12 -13 0 -12 -3 6 -10 17 -6 21 -14 16
-27 -11 -28 -11 -34 1 -39 15 -5 24 53 10 67 -5 5 -6 13 -1 17 4 5 10 2 12 -4
3 -7 14 -13 24 -13 16 0 18 -4 11 -16 -11 -20 -4 -56 9 -48 5 3 9 14 9 25 0
11 4 18 8 15 5 -3 7 -19 4 -36 -2 -18 0 -30 7 -30 6 0 11 17 11 40 0 31 -4 40
-17 40 -9 0 -13 3 -10 6 4 4 26 1 49 -5 24 -7 69 -14 100 -15 31 -2 62 -8 70
-12 13 -8 18 -10 50 -12 9 -1 19 -10 21 -19 4 -15 5 -15 6 -2 1 11 10 17 26
17 29 0 34 -14 8 -21 -11 -3 -8 -5 9 -6 20 -1 26 3 22 14 -4 8 -1 15 5 15 6 0
11 -8 11 -17 0 -15 2 -16 10 -3 15 23 12 43 -5 37 -8 -4 -17 -2 -20 3 -4 6 9
11 27 11 18 1 47 3 63 5 50 6 133 12 265 20 206 11 200 11 210 -5 8 -14 9 -13
10 2 0 14 5 17 21 12 19 -6 20 -4 14 27 -9 39 -5 34 -32 42 -16 5 -23 3 -23
-6 0 -10 -3 -9 -10 2 -8 12 -10 12 -16 -4 -4 -11 -2 -21 7 -27 17 -10 16 -10
-38 -13 -24 -1 -43 2 -43 7 0 4 4 6 9 2 5 -3 12 -1 16 5 3 5 -1 10 -9 10 -25
0 -31 -4 -30 -17 1 -7 -2 -13 -7 -13 -5 0 -9 15 -10 33 0 30 -1 31 -11 10 -10
-21 -25 -28 -55 -24 -7 1 -13 -3 -13 -9 0 -6 -5 -8 -10 -5 -6 4 -8 10 -5 15 3
5 1 11 -5 15 -6 3 -10 -4 -11 -17 0 -13 -3 -17 -6 -10 -7 17 -21 15 -26 -5 -4
-17 -5 -17 -6 0 -1 14 -6 17 -22 12 -15 -5 -19 -4 -15 4 4 6 3 11 -3 11 -5 0
-12 -8 -14 -17 -4 -17 -5 -17 -6 0 -2 25 -19 21 -24 -5 l-4 -23 -2 23 c-1 23
-21 32 -21 8 0 -15 -31 -17 -41 -2 -4 4 -4 17 -2 27 6 21 43 26 43 7 0 -8 7
-5 15 6 14 19 15 19 15 1 0 -10 3 -15 7 -11 4 4 8 15 8 24 0 9 6 17 14 17 8 0
16 6 19 13 5 15 -3 15 -29 1 -24 -12 -127 -41 -152 -43 -10 0 -17 -7 -16 -16
3 -37 -2 -65 -9 -52 -5 7 -16 10 -25 6 -10 -4 -17 -1 -17 6 0 7 -7 10 -15 6
-9 -3 -15 0 -15 9 0 19 -4 19 -87 -1 -62 -15 -159 -15 -288 -1 -18 2 -20 10
-22 109 -2 124 -30 298 -45 277 -7 -10 -8 -8 -3 7 6 23 -12 74 -27 74 -4 0 -8
9 -8 20 0 11 -4 20 -10 20 -12 0 -50 37 -50 48 0 19 -141 140 -167 143 -5 1
-17 8 -28 15 -11 8 -26 14 -35 14 -8 0 -27 7 -42 14 -15 8 -48 17 -74 20 -58
6 -62 10 -30 31 109 72 366 132 536 125 55 -2 123 -7 130 -10 3 -1 9 -2 14 -1
5 1 13 -4 17 -11 6 -9 9 -9 9 -1 0 13 72 9 120 -6 14 -4 35 -7 48 -6 20 1 27
-10 23 -37 0 -5 4 -8 9 -8 6 0 10 9 10 19 0 17 9 15 85 -22 46 -23 85 -48 85
-55 0 -7 4 -11 8 -8 16 10 160 -146 155 -166 -2 -4 1 -8 6 -8 5 0 12 -11 15
-25 4 -14 11 -23 16 -20 6 3 10 -3 10 -14 0 -14 5 -19 15 -15 11 5 15 -1 15
-21 0 -23 3 -25 14 -16 19 16 32 -5 15 -25 -16 -19 -4 -30 16 -14 13 11 15 9
15 -13 0 -28 15 -44 23 -25 3 7 6 2 6 -11 1 -17 -3 -22 -14 -17 -19 7 -19 -8
-1 -27 17 -17 25 -113 9 -110 -6 1 -13 -7 -16 -18 -4 -15 -2 -19 9 -15 8 3 14
1 14 -4 0 -6 -4 -10 -10 -10 -5 0 -12 -11 -16 -24 -4 -16 -11 -23 -20 -19 -9
3 -14 -1 -14 -12 0 -14 -3 -15 -14 -6 -11 9 -15 9 -19 -1 -4 -10 -6 -10 -6 0
-1 19 -21 14 -21 -5 -1 -16 -2 -16 -15 1 -15 19 -15 19 -15 -5 0 -19 -2 -21
-10 -9 -8 12 -10 12 -15 -2 -4 -10 -13 -14 -23 -11 -13 5 -14 3 -5 -7 7 -8 22
-10 45 -4 46 11 61 11 76 0 7 -5 12 -4 12 3 0 8 8 10 20 6 12 -4 27 -1 35 5
11 9 15 9 15 1 0 -6 -4 -11 -10 -11 -19 0 -10 -16 10 -17 11 -1 18 2 15 7 -3
5 -1 11 4 14 5 4 14 -6 20 -21 10 -27 10 -27 8 -3 -2 26 -1 27 63 29 l40 1 0
69 c0 39 -5 73 -10 76 -6 4 -8 15 -5 25 3 10 1 21 -4 25 -7 4 -8 -1 -5 -12 4
-13 0 -10 -15 7 -12 14 -24 35 -27 48 -3 12 -10 22 -15 22 -11 0 -40 56 -33
63 3 3 -4 15 -16 27 -11 11 -18 25 -15 30 4 6 -1 17 -9 26 -9 8 -30 37 -48 62
-17 26 -35 49 -40 50 -4 2 -8 10 -8 17 0 7 -32 41 -71 76 -40 35 -77 69 -83
74 -27 26 -106 75 -166 103 -185 88 -300 126 -419 141 -98 13 -105 14 -113 25
-8 12 -358 18 -397 6 -20 -5 -33 -5 -37 2 -4 7 -9 6 -14 -2 -4 -7 -19 -13 -34
-13 -14 -1 -26 -6 -26 -11 0 -4 -7 -6 -15 -2 -8 3 -15 1 -15 -5 0 -6 -6 -9
-14 -6 -8 3 -17 0 -19 -8 -5 -13 -89 -75 -102 -75 -3 0 -1 9 5 19 6 13 7 22 0
26 -5 3 -7 18 -4 33 2 15 0 41 -5 57 -8 25 -9 17 -10 -45 -1 -41 -5 -70 -9
-63 -7 11 -8 53 -4 138 2 30 5 36 12 25 11 -17 13 -12 15 48 0 23 -3 42 -7 42
-4 0 -8 -17 -8 -37 -1 -31 -3 -35 -11 -20 -5 9 -7 22 -4 27 3 6 1 10 -4 10 -7
0 -12 -41 -12 -112 l-2 -113 -7 75 c-4 41 -6 85 -3 97 3 12 0 30 -6 40 -8 14
-11 3 -12 -52 -2 -59 -3 -62 -6 -20 -5 69 -15 89 -23 45 l-7 -35 -8 33 c-5 20
-11 29 -15 22 -4 -6 -11 -12 -16 -13 -5 -1 -9 -12 -9 -23 0 -13 -4 -20 -11
-17 -7 2 -18 -5 -24 -18 -10 -17 -14 -19 -21 -8 -6 10 -9 4 -9 -19 0 -19 -4
-31 -10 -27 -5 3 -12 -5 -15 -18 -5 -20 -12 -24 -41 -23 -31 1 -34 4 -33 31 0
25 2 27 9 10 8 -21 13 -15 23 30 3 11 5 3 6 -17 0 -20 5 -39 9 -42 4 -2 8 46
8 108 l1 113 -24 -5 c-12 -2 -23 -9 -23 -16 0 -6 -8 -2 -16 9 -16 19 -16 19
-11 -8 2 -15 1 -30 -3 -32 -11 -7 -19 106 -9 130 7 19 8 19 8 -2 1 -13 5 -23
9 -23 5 0 7 13 4 29 -2 16 1 32 7 35 6 4 11 2 11 -4 0 -6 11 1 25 16 14 15 25
34 25 43 -1 14 -2 14 -14 -2 -12 -16 -14 -16 -20 -1 -10 26 -7 36 9 30 8 -3
14 -2 13 2 -2 12 14 42 23 42 4 0 6 -16 4 -35 -3 -20 0 -35 5 -35 6 0 10 5 10
10 0 6 7 10 15 10 8 0 15 4 15 10 0 5 -7 7 -15 4 -11 -5 -15 1 -15 25 0 23 4
29 15 25 8 -4 15 -2 15 3 0 6 -60 11 -144 11 l-145 2 -5 -128 c-3 -70 -8 -154
-11 -187 -8 -68 9 -159 35 -190 19 -23 38 -54 25 -43 -4 4 -14 3 -22 -3 -10
-9 -13 -6 -14 12 -1 17 -3 19 -6 7 -6 -22 -23 -24 -23 -3 0 11 -7 14 -24 11
-18 -3 -26 1 -31 17 l-8 22 -4 -22 c-3 -18 -10 -21 -33 -18 -17 2 -32 -1 -35
-6 -6 -9 4 -10 68 -12 15 -1 27 -5 27 -10 0 -4 4 -6 8 -3 5 3 19 -1 33 -7 13
-7 35 -12 49 -11 50 4 175 -99 213 -176 4 -8 16 -28 27 -45 11 -16 23 -37 26
-45 3 -8 12 -29 20 -47 8 -17 14 -38 14 -46 0 -42 79 -167 127 -202 58 -42
122 -108 116 -119 -3 -6 -3 -8 1 -4 5 4 47 -20 94 -53 47 -32 91 -59 99 -59 7
0 13 -4 13 -10 0 -5 7 -10 15 -10 8 0 15 -4 15 -10 0 -5 -5 -10 -11 -10 -6 0
-3 -7 5 -16 9 -8 20 -13 25 -10 11 7 23 -22 16 -35 -4 -5 1 -6 9 -3 9 3 17 -2
21 -15 3 -12 11 -21 16 -21 5 0 9 -9 9 -21 0 -11 4 -18 8 -15 4 2 15 -22 23
-54 9 -33 12 -57 7 -54 -4 3 -8 -7 -8 -23 0 -22 2 -25 10 -13 8 12 10 11 10
-7 0 -13 -4 -23 -10 -23 -5 0 -10 -9 -10 -21 0 -13 4 -18 13 -13 7 5 6 0 -3
-11 -11 -14 -12 -19 -3 -22 22 -8 14 -23 -9 -20 -15 1 -23 -4 -26 -18 -4 -16
-2 -17 11 -7 23 19 28 -7 13 -64 -11 -41 -14 -45 -18 -24 -3 14 -5 1 -5 -28 0
-31 -6 -59 -15 -70 -8 -9 -25 -42 -38 -72 -12 -30 -26 -58 -31 -61 -5 -3 -20
-20 -34 -39 -22 -30 -25 -31 -25 -12 0 12 6 22 14 22 8 0 16 7 20 15 3 8 1 15
-3 15 -5 0 -11 -6 -14 -12 -8 -23 -21 2 -20 38 1 33 23 77 23 46 0 -7 4 -12
10 -12 5 0 9 8 8 18 -2 21 23 82 34 82 4 0 8 -9 8 -20 0 -11 4 -20 10 -20 5 0
8 18 6 40 -2 22 0 38 5 34 5 -3 9 -20 9 -37 1 -28 2 -30 11 -14 6 11 8 32 5
49 -6 33 9 72 25 62 6 -4 9 2 8 12 -2 11 1 26 6 34 8 13 6 13 -8 2 -14 -12
-17 -10 -23 13 -5 18 -2 30 7 36 9 5 14 28 14 64 0 46 -2 53 -11 40 -15 -20
-26 -5 -24 33 3 40 0 49 -10 27 -8 -18 -9 -19 -9 -1 -1 12 -6 16 -15 13 -15
-6 -32 25 -23 40 3 5 1 17 -4 28 l-9 20 1 -20 c2 -38 -2 -40 -17 -10 -8 17
-12 22 -9 12 3 -12 1 -17 -7 -15 -7 3 -13 11 -13 19 0 8 -5 19 -11 24 -7 6
-15 23 -18 39 -5 21 -10 26 -15 17 -6 -9 -10 -6 -14 10 -4 13 -9 20 -13 16 -4
-4 -13 -2 -21 4 -9 9 -13 8 -13 0 0 -6 -4 -11 -10 -11 -5 0 -9 5 -7 12 1 6
-11 12 -28 12 -20 1 -31 7 -35 21 -3 12 -13 20 -25 20 -19 0 -65 54 -65 75 0
12 -3 12 -34 1 -16 -7 -26 -7 -28 0 -5 15 -38 0 -38 -17 0 -17 -17 -18 -23 -1
-3 7 -6 5 -6 -5 -1 -10 -6 -18 -12 -18 -6 0 -8 8 -4 19 3 11 1 22 -5 26 -5 3
-10 -3 -10 -14 0 -25 -4 -27 -63 -36 l-49 -8 3 39 c4 56 0 128 -6 122 -3 -3
-7 -42 -8 -86 -4 -104 -17 -119 -18 -21 -1 41 -3 66 -6 57 -2 -10 -11 -18 -19
-18 -13 0 -19 -35 -15 -82 1 -10 -3 -18 -9 -18 -7 0 -11 15 -9 38 4 67 -1 122
-10 122 -5 0 -12 -8 -14 -17 -3 -11 -5 -7 -6 10 0 15 -4 27 -9 27 -4 0 -6 -18
-4 -40 3 -25 0 -40 -7 -40 -6 0 -11 8 -12 18 0 9 -5 1 -11 -18 -9 -30 -11 -32
-18 -15 -7 19 -7 19 -18 0 -11 -20 -11 -20 -12 1 0 11 -3 23 -6 26 -10 11 -74
-15 -75 -31 0 -9 -6 0 -12 19 l-11 35 -6 -45 -6 -45 -5 45 c-5 43 -6 43 -7
-15 -3 -72 -22 -114 -22 -48 0 23 -5 45 -11 48 -14 9 -38 -24 -40 -55 -1 -17
-3 -20 -6 -7 -5 20 -19 22 -26 5 -3 -7 -6 7 -7 32 -4 82 -4 83 -28 85 -23 2
-24 0 -20 -64 3 -60 1 -66 -17 -68 -11 -2 -14 0 -7 3 6 3 12 12 12 19 0 7 -6
16 -12 18 -10 4 -10 8 -2 14 17 12 15 63 -2 56 -7 -2 -23 5 -35 16 -17 16 -25
18 -31 9 -5 -9 -8 -6 -8 9 0 16 5 20 19 16 17 -4 18 0 14 44 -3 26 -10 53 -15
58 -7 7 -8 -1 -3 -22 3 -18 2 -34 -4 -38 -7 -4 -11 7 -11 28 0 26 -5 36 -20
40 -21 6 -29 -18 -8 -25 14 -5 20 -99 7 -119 -7 -11 -9 -11 -9 -1 0 7 -5 10
-11 6 -6 -3 -9 -15 -6 -25 3 -12 -2 -20 -13 -24 -10 -3 -20 -14 -22 -23 -7
-33 -14 32 -7 68 l6 35 2 -32 c2 -61 21 -46 21 16 0 34 4 61 10 61 6 0 10 6
10 13 0 7 -9 13 -21 13 -16 0 -20 -5 -16 -22 2 -13 0 -29 -4 -36 -5 -8 -9 17
-9 60 0 49 -3 71 -11 67 -6 -4 -10 -23 -9 -44 3 -53 1 -58 -15 -37 -14 18 -15
16 -15 -28 0 -32 -4 -45 -11 -40 -6 3 -15 0 -20 -7 -7 -11 -9 -10 -9 4 0 9 -7
17 -15 17 -8 0 -15 7 -15 15 0 8 -4 15 -8 15 -16 0 -35 78 -29 122 3 23 2 52
-3 63 -7 16 -9 12 -10 -20 l-2 -40 -10 35 c-10 32 -11 33 -17 12 -3 -13 -10
-23 -15 -22 -5 1 -13 -4 -17 -12 -7 -10 -9 -9 -9 4 0 21 17 32 23 16 3 -7 6 0
6 15 1 16 8 35 16 43 19 20 20 41 1 25 -19 -16 -24 -3 -15 34 6 28 7 29 14 8
10 -31 26 -18 20 15 -4 20 -2 18 9 -8 13 -34 14 -34 18 -10 5 22 5 20 7 -7 0
-18 6 -33 11 -33 6 0 10 38 10 95 0 78 3 95 15 95 10 0 15 10 15 28 0 18 3 23
9 14 4 -7 6 -25 3 -39 -4 -19 -2 -24 8 -18 8 5 10 21 7 48 -4 28 -2 36 6 28
14 -14 38 29 25 46 -6 7 -4 14 3 18 6 4 15 1 20 -6 7 -12 9 -11 9 1 0 8 15 22
33 29 29 13 57 34 57 43 0 2 -16 4 -35 4 -19 1 -35 -3 -35 -7 0 -5 -7 -9 -15
-9 -8 0 -15 5 -15 11 0 6 -10 9 -22 8 -31 -4 -52 9 -39 25 11 13 3 98 -9 91
-3 -2 -14 5 -23 16 -13 14 -17 39 -17 97 -1 72 -2 75 -15 52 -13 -23 -14 -20
-15 53 0 43 4 76 8 73 8 -4 4 125 -4 133 -8 8 -12 -4 -17 -49 -3 -24 -10 -46
-16 -48 -6 -2 -11 -11 -11 -20 0 -11 -3 -13 -11 -5 -7 7 -7 27 -1 64 6 30 10
55 9 56 -1 0 -23 -1 -49 -4 -32 -4 -48 -11 -51 -22 -4 -14 -5 -14 -6 2 -2 31
-21 18 -22 -15 -1 -18 -3 -25 -6 -15 -2 9 -8 17 -13 17 -5 0 -11 -8 -13 -17
-3 -10 -5 -3 -6 15 -1 35 -14 42 -30 15 -10 -17 -12 -17 -25 0 -8 10 -16 15
-19 10 -6 -11 9 -49 22 -58 14 -8 14 -45 1 -45 -5 0 -10 9 -10 20 0 11 -4 20
-9 20 -5 0 -11 14 -14 30 -8 38 -27 39 -28 3 l-1 -28 -8 30 c-6 25 -8 27 -14
13 -5 -10 -6 -25 -2 -33 3 -8 1 -15 -4 -15 -6 0 -10 10 -11 23 0 21 -1 21 -11
-3 l-10 -25 -11 24 c-9 19 -9 25 1 29 13 4 7 22 -9 22 -5 0 -10 -15 -10 -32
-2 -31 -2 -31 -6 -5 -2 15 -8 27 -13 27 -5 0 -16 3 -25 7 -14 5 -16 2 -11 -14
4 -13 1 -27 -10 -37 -18 -19 -50 -17 -46 2 1 7 -5 15 -13 18 -8 4 -15 12 -15
20 0 8 -4 14 -10 14 -5 0 -7 -7 -4 -15 4 -10 0 -15 -15 -15 -12 0 -21 -6 -21
-12 0 -10 -3 -9 -9 1 -5 7 -13 11 -19 7 -6 -3 -13 2 -15 11 -3 10 -5 3 -6 -15
-1 -38 -21 -34 -21 4 0 39 -20 27 -21 -13 -1 -24 -3 -29 -6 -15 -5 24 -18 29
-26 10 -3 -8 -6 -6 -6 5 -1 21 -21 23 -21 1 0 -8 -4 -13 -9 -9 -5 3 -12 1 -16
-4 -3 -6 -12 -8 -20 -4 -10 3 -15 -1 -15 -14 0 -12 -8 -19 -20 -20 -22 -2 -26
7 -10 23 7 7 6 11 -3 11 -7 0 -18 -11 -24 -24 -9 -19 -8 -23 5 -23 18 0 11
-10 -10 -14 -7 -1 -19 -5 -25 -9 -19 -12 -16 1 7 31 16 20 18 27 8 34 -20 12
-28 10 -22 -7 4 -10 0 -15 -12 -15 -16 0 -17 -2 -4 -10 11 -8 8 -9 -12 -6 -21
3 -28 1 -28 -11 0 -9 6 -13 15 -9 8 3 15 1 15 -4 0 -5 -12 -13 -27 -17 -16 -3
-110 -39 -211 -79 -101 -40 -205 -76 -230 -79 -63 -9 -117 -25 -242 -73 -196
-75 -417 -180 -423 -202 -3 -10 -5 -9 -6 4 -1 19 -1 19 -22 0 -21 -19 -108
-46 -121 -37 -15 9 -8 33 10 33 17 1 52 22 52 33 0 4 -6 4 -14 1 -8 -3 -17 -1
-20 5 -4 6 -13 8 -22 4 -12 -4 -14 0 -8 21 3 14 3 33 0 43 -6 15 -8 14 -22 -5
-8 -11 -13 -27 -12 -34 2 -7 -4 -13 -12 -13 -10 0 -14 8 -12 23 3 21 1 22 -17
12 -25 -13 -43 -5 -39 18 2 11 -5 18 -17 20 -31 4 -47 38 -40 83 4 21 11 39
16 39 5 0 9 6 9 14 0 23 38 7 43 -18 4 -19 4 -18 6 4 2 23 3 24 12 5 6 -14 7
-9 3 21 -4 30 -1 44 10 54 9 7 16 24 16 39 1 25 1 25 15 7 14 -19 15 -18 15
11 0 18 5 35 10 38 5 3 10 11 10 16 0 6 -5 7 -10 4 -5 -3 -10 3 -10 14 0 12 5
20 12 18 7 -1 13 9 14 23 1 13 7 26 13 28 6 2 11 13 11 24 0 12 -3 18 -7 15
-3 -4 -13 -1 -21 6 -13 10 -14 8 -7 -12 5 -16 4 -21 -4 -17 -6 4 -11 13 -11
21 0 7 -8 16 -17 18 -29 8 -838 9 -846 1z m2660 -61 c-3 -10 -5 -4 -5 12 0 17
2 24 5 18 2 -7 2 -21 0 -30z m210 -35 c-3 -7 -5 -2 -5 12 0 14 2 19 5 13 2 -7
2 -19 0 -25z m-357 2 c0 -5 -4 -10 -10 -10 -5 0 -10 5 -10 10 0 6 5 10 10 10
6 0 10 -4 10 -10z m1393 -25 c-7 -21 -13 -19 -13 6 0 11 4 18 10 14 5 -3 7
-12 3 -20z m-1553 3 c0 -4 -9 -8 -20 -8 -11 0 -20 4 -20 8 0 4 9 8 20 8 11 0
20 -4 20 -8z m410 -17 c0 -6 -4 -13 -10 -16 -5 -3 -10 1 -10 9 0 9 5 16 10 16
6 0 10 -4 10 -9z m-1906 -17 c4 -10 1 -14 -6 -12 -15 5 -23 28 -10 28 5 0 13
-7 16 -16z m1427 -42 c-7 -2 -18 1 -23 6 -8 8 -4 9 13 5 13 -4 18 -8 10 -11z
m-48 -4 c3 -9 -9 -14 -37 -15 l-41 -1 35 13 c19 7 36 14 36 14 1 1 4 -5 7 -11z
m57 -17 c0 -5 -17 -15 -37 -22 -21 -6 -44 -18 -51 -26 -8 -8 -27 -17 -43 -20
-16 -3 -32 -10 -35 -14 -3 -5 -10 -9 -16 -9 -6 0 -3 9 7 20 10 11 21 17 25 15
17 -10 38 7 33 26 -3 10 0 19 6 19 5 0 8 -7 5 -15 -5 -11 -2 -13 9 -9 9 3 13
12 10 20 -3 8 0 14 7 14 6 0 8 -4 5 -10 -8 -13 -3 -13 36 5 41 17 39 17 39 6z
m-146 -10 c11 -4 15 -10 10 -13 -5 -4 -18 0 -29 8 -20 15 -12 17 19 5z m-90
-36 c-5 -13 -14 -16 -38 -11 l-31 6 30 -21 c28 -19 28 -20 5 -13 -46 13 -49
51 -4 40 17 -5 26 -2 30 9 4 9 8 14 10 12 3 -2 1 -12 -2 -22z m1792 -5 c1 -17
-3 -30 -7 -30 -5 0 -9 14 -9 30 0 39 15 39 16 0z m-3066 -11 c0 -5 -4 -9 -10
-9 -5 0 -10 7 -10 16 0 8 5 12 10 9 6 -3 10 -10 10 -16z m2207 -21 c-3 -8 -6
-5 -6 6 -1 11 2 17 5 13 3 -3 4 -12 1 -19z m-897 -2 c0 -18 -19 -31 -28 -21
-4 4 -1 10 6 12 6 3 10 9 6 14 -3 5 0 9 5 9 6 0 11 -6 11 -14z m-135 -6 c-3
-5 -1 -10 6 -10 7 0 10 -3 6 -6 -3 -3 -16 1 -29 10 l-22 16 22 0 c13 0 20 -4
17 -10z m339 -22 c-9 -13 32 -28 44 -16 9 9 12 9 12 -2 0 -10 4 -9 18 3 10 10
22 14 26 10 4 -4 4 0 0 10 -8 22 12 22 25 0 6 -10 11 -14 11 -9 0 5 7 3 15 -4
13 -10 15 -9 15 10 0 21 1 22 25 6 32 -21 59 -21 51 0 -5 14 -4 15 9 4 8 -7
15 -9 15 -5 0 4 11 0 24 -8 17 -12 26 -13 35 -4 8 8 11 2 11 -26 0 -32 3 -37
24 -37 17 0 25 -7 28 -24 6 -29 -10 -51 -37 -51 -11 0 -20 -7 -21 -15 -3 -48
-34 -83 -34 -39 0 11 5 17 10 14 13 -8 13 -2 -2 30 -11 26 -28 34 -28 14 0 -6
-7 -9 -15 -5 -12 4 -15 -3 -15 -34 0 -22 -3 -40 -6 -40 -4 0 -17 11 -30 26
-24 25 -29 19 -18 -23 3 -12 12 -19 19 -17 9 4 11 -2 8 -19 -6 -29 12 -68 29
-64 7 1 13 -5 15 -14 2 -9 -3 -16 -12 -16 -8 0 -15 4 -15 9 0 18 -19 6 -23
-14 l-4 -23 -10 25 c-10 24 -10 24 -15 -8 -2 -18 0 -32 4 -32 14 0 38 -27 31
-34 -3 -3 -1 -12 6 -20 6 -7 10 -27 9 -44 -2 -24 -5 -29 -15 -20 -7 6 -13 7
-13 2 0 -16 24 -74 31 -74 4 0 6 -16 4 -35 -2 -19 1 -35 6 -35 5 0 9 5 9 12 0
20 13 0 15 -25 2 -14 -2 -24 -10 -24 -7 0 -11 6 -8 14 4 9 0 11 -11 7 -12 -5
-17 3 -22 35 -4 22 -9 40 -13 39 -33 -4 -41 4 -42 40 0 28 -2 32 -8 17 -8 -19
-8 -19 -15 3 -4 12 -6 38 -5 57 2 19 0 37 -4 41 -11 11 -9 18 14 43 18 19 19
25 8 32 -23 14 -29 11 -29 -16 0 -14 -4 -25 -10 -25 -11 0 -13 12 -10 47 1 13
-7 26 -19 33 -15 7 -21 21 -21 43 0 26 -4 33 -20 33 -15 0 -20 -7 -20 -28 0
-15 -4 -28 -8 -28 -5 0 -8 18 -7 39 1 23 -3 37 -8 34 -5 -3 -7 -31 -5 -62 3
-31 1 -67 -3 -81 -6 -21 -7 -18 -8 17 -1 23 -6 45 -13 49 -7 4 -8 3 -4 -4 4
-7 2 -12 -3 -12 -6 0 -11 9 -11 21 0 15 -5 19 -15 15 -8 -3 -15 -1 -15 4 0 6
-7 10 -15 10 -10 0 -15 10 -15 30 0 17 5 30 10 30 6 0 10 -10 10 -22 1 -20 2
-21 10 -6 12 20 3 48 -16 48 -9 0 -15 12 -15 30 -1 17 -2 35 -3 40 -1 6 4 9 9
8 6 -2 9 -11 8 -20 -2 -10 2 -18 7 -18 6 0 11 15 12 33 l1 32 4 -33 c5 -36 9
-39 66 -45 27 -4 37 -1 37 9 0 12 4 12 20 4 17 -9 20 -8 21 12 0 21 1 21 8 3
7 -16 9 -14 16 15 9 34 9 34 13 -17 3 -58 10 -63 38 -32 18 20 18 22 1 34 -30
22 -20 38 12 19 17 -10 28 -21 25 -25 -11 -19 19 -19 32 -1 8 12 21 19 29 16
8 -4 15 -2 15 2 0 13 -20 41 -20 30 0 -6 -6 -2 -13 9 -13 17 -14 17 -22 -6 -6
-20 -8 -21 -12 -6 -5 17 -14 21 -45 18 -10 -1 -18 2 -18 8 0 6 -15 8 -35 6
-28 -4 -35 -1 -36 13 -1 15 -2 15 -6 0 -5 -19 -43 -20 -43 -1 0 9 -7 10 -24 3
-27 -10 -37 -5 -29 15 2 8 11 11 19 8 11 -4 13 2 8 28 -4 25 -3 30 4 19 6 -8
9 -17 6 -22z m1634 6 c1 -15 -2 -23 -8 -19 -6 4 -8 11 -5 16 4 5 1 9 -5 9 -6
0 -8 5 -5 10 11 17 21 11 23 -16z m-2018 7 c0 -5 -7 -11 -15 -15 -15 -5 -20 5
-8 17 9 10 23 9 23 -2z m139 -25 c-35 -24 -183 -78 -223 -81 -187 -14 -231
-19 -316 -35 -52 -11 -117 -26 -145 -34 -27 -9 -51 -16 -51 -16 -1 0 -5 7 -8
16 -4 12 -2 15 9 11 8 -4 17 -1 21 4 3 6 14 9 24 6 14 -3 17 -1 13 11 -4 10
-2 13 6 8 6 -4 19 -2 27 5 8 6 17 9 21 5 3 -3 1 -6 -5 -6 -7 0 -12 -4 -12 -9
0 -10 81 6 90 17 3 4 21 8 40 9 19 1 36 6 38 12 2 6 11 11 20 11 15 0 15 -2 2
-10 -11 -7 3 -10 45 -9 44 0 55 3 40 9 -15 7 -11 9 20 7 33 -2 40 1 39 15 -1
10 3 15 8 12 5 -3 7 -12 4 -20 -3 -7 0 -11 7 -8 7 2 39 6 72 8 33 2 63 4 67 5
4 0 3 12 -2 25 -7 20 -5 25 15 34 18 9 25 8 29 -4 4 -9 2 -12 -5 -8 -6 4 -15
0 -20 -7 -12 -19 -11 -29 2 -29 5 0 8 4 5 9 -5 7 49 25 57 18 1 -1 16 8 32 20
17 12 32 17 34 12 1 -6 1 -11 0 -13z m-189 4 c0 -5 -9 -10 -20 -10 -14 0 -20
-7 -21 -22 0 -22 -1 -22 -8 -3 -6 15 -3 23 13 32 26 15 36 16 36 3z m962 -70
c6 0 8 11 6 25 -3 14 -1 28 3 31 8 5 13 -30 10 -67 -1 -9 5 -22 14 -29 14 -12
16 -10 10 16 -5 29 -5 29 6 4 10 -20 13 -22 16 -8 2 9 10 15 18 12 7 -3 15 3
18 13 4 14 5 13 6 -5 0 -12 8 -25 16 -28 8 -4 15 -14 15 -24 0 -27 -33 -18
-40 11 -9 38 -22 5 -19 -49 4 -73 0 -92 -16 -92 -8 0 -15 -7 -15 -16 0 -8 -4
-12 -10 -9 -13 8 -23 -37 -18 -80 2 -19 0 -35 -4 -35 -4 0 -8 16 -8 35 0 28
-4 35 -19 35 -11 0 -21 3 -24 8 -2 4 -3 3 -2 -3 1 -5 -1 -19 -6 -30 -6 -15 -8
-10 -9 20 -1 39 -1 39 -14 16 l-13 -23 -7 23 c-7 23 -8 23 -16 4 -8 -19 -9
-19 -9 3 -1 12 -8 25 -16 28 -9 4 -15 18 -14 38 1 17 3 23 6 14 5 -19 20 -23
42 -9 9 6 11 18 6 40 -4 17 -10 29 -15 26 -5 -3 -11 1 -13 7 -4 9 -6 8 -6 -3
-1 -17 -41 -21 -53 -4 -13 18 -9 27 11 20 36 -11 49 3 48 53 -2 33 2 46 11 45
6 -2 12 4 12 13 0 10 6 13 18 10 10 -4 27 0 38 8 18 14 19 12 22 -15 2 -16 8
-29 14 -29z m81 35 c-7 -21 -13 -19 -13 6 0 11 4 18 10 14 5 -3 7 -12 3 -20z
m24 3 c-3 -8 -6 -5 -6 6 -1 11 2 17 5 13 3 -3 4 -12 1 -19z m970 0 c-3 -8 -6
-5 -6 6 -1 11 2 17 5 13 3 -3 4 -12 1 -19z m-2107 2 c0 -5 -5 -10 -11 -10 -5
0 -7 5 -4 10 3 6 8 10 11 10 2 0 4 -4 4 -10z m1166 -48 c-12 -11 -17 7 -9 34
l8 29 3 -28 c2 -16 1 -31 -2 -35z m971 21 c-3 -10 -5 -4 -5 12 0 17 2 24 5 18
2 -7 2 -21 0 -30z m-1247 17 c0 -5 -7 -10 -15 -10 -8 0 -15 5 -15 10 0 6 7 10
15 10 8 0 15 -4 15 -10z m427 -32 c-3 -7 -5 -2 -5 12 0 14 2 19 5 13 2 -7 2
-19 0 -25z m-1537 -2 c0 -2 -7 -6 -15 -10 -8 -3 -15 -1 -15 4 0 6 7 10 15 10
8 0 15 -2 15 -4z m687 -28 c-3 -7 -5 -2 -5 12 0 14 2 19 5 13 2 -7 2 -19 0
-25z m-168 -7 c-15 -5 -22 6 -14 19 6 9 10 9 16 -1 5 -8 4 -15 -2 -18z m1928
-13 c-3 -8 -6 -5 -6 6 -1 11 2 17 5 13 3 -3 4 -12 1 -19z m-2021 -3 c-8 -8
-21 -15 -28 -15 -8 1 -6 6 6 15 26 20 42 19 22 0z m149 -53 c-9 -23 -26 -2
-21 26 2 15 5 32 6 37 1 6 6 -3 11 -20 5 -16 7 -36 4 -43z m1902 46 c-3 -8 -6
-5 -6 6 -1 11 2 17 5 13 3 -3 4 -12 1 -19z m-1967 -30 c-1 -35 -3 -40 -11 -25
-6 10 -8 24 -5 32 3 10 0 12 -12 8 -13 -4 -12 -2 3 10 11 9 21 17 23 17 1 0 2
-19 2 -42z m1087 10 c-3 -8 -6 -5 -6 6 -1 11 2 17 5 13 3 -3 4 -12 1 -19z
m970 -30 c-2 -13 -4 -5 -4 17 -1 22 1 32 4 23 2 -10 2 -28 0 -40z m-1960 -15
c-2 -39 -7 -57 -15 -55 -7 1 -12 -6 -12 -15 0 -15 -2 -16 -10 -3 -6 9 -5 17 2
21 6 4 13 30 16 58 6 70 23 65 19 -6z m960 35 c-3 -8 -6 -5 -6 6 -1 11 2 17 5
13 3 -3 4 -12 1 -19z m1613 12 c0 -6 28 -9 100 -12 8 -1 18 -6 23 -12 5 -8 10
-6 17 4 8 13 10 12 10 -2 0 -10 5 -18 10 -18 6 0 10 5 10 10 0 19 38 10 43
-11 9 -34 -1 -44 -41 -42 -20 1 -38 2 -39 4 -9 6 -30 4 -40 -4 -7 -5 -13 -6
-13 -3 0 4 -5 4 -12 0 -6 -4 -34 -9 -62 -11 -28 -2 -75 -11 -104 -19 -29 -9
-59 -13 -67 -10 -8 3 -17 1 -20 -5 -4 -5 -10 -7 -15 -4 -5 3 -11 1 -15 -5 -10
-17 -25 -11 -19 8 3 9 -2 5 -10 -9 -16 -28 -42 -43 -57 -33 -5 3 -9 -1 -9 -10
0 -8 -13 -20 -30 -28 -16 -7 -30 -20 -30 -28 0 -13 -1 -13 -10 0 -8 12 -10 12
-16 -3 -3 -9 -10 -14 -15 -11 -5 3 -7 10 -4 15 4 5 1 9 -4 9 -6 0 -11 -9 -11
-20 0 -10 -18 -38 -40 -62 -24 -25 -38 -35 -33 -23 4 11 14 25 22 32 9 6 13
14 9 18 -4 4 -17 -2 -29 -14 -13 -12 -29 -21 -36 -21 -7 0 -13 -9 -13 -21 0
-15 5 -19 15 -15 9 3 15 0 15 -10 0 -8 -4 -13 -9 -9 -5 3 -12 1 -16 -5 -12
-19 -22 -10 -17 16 3 19 1 25 -7 20 -6 -4 -11 -11 -11 -17 0 -5 -8 -17 -18
-27 -17 -17 -20 -17 -30 -3 -10 14 -11 14 -13 -4 -1 -11 -5 3 -9 30 -6 37 -4
53 6 61 16 13 19 28 4 19 -5 -3 -10 -1 -10 4 0 6 7 11 15 11 8 0 15 5 15 10 0
6 7 10 15 10 11 0 15 12 17 43 l1 42 4 -38 c4 -39 23 -42 23 -4 0 18 2 19 10
7 8 -12 10 -11 10 8 0 13 -6 22 -15 22 -17 0 -20 16 -5 25 6 3 10 1 10 -6 0
-7 7 -4 15 7 11 15 15 16 15 4 0 -9 6 -5 15 10 l14 25 2 -30 c1 -29 1 -29 14
10 8 22 14 36 14 31 1 -5 8 -3 16 4 12 10 15 9 16 -6 0 -15 3 -14 11 6 11 25
11 25 15 3 6 -32 23 -29 24 5 l1 27 8 -30 c4 -16 9 -27 10 -22 3 9 7 24 9 35
1 4 5 1 10 -7 7 -10 13 -11 30 -2 11 7 21 17 21 22 0 6 7 9 15 5 10 -4 15 1
15 14 0 11 5 20 11 20 5 0 7 -4 4 -10 -3 -5 -2 -10 3 -10 6 0 12 6 15 14 3 8
25 19 49 24 47 11 178 12 178 2z m-3486 -11 c-4 -8 0 -9 15 -4 11 3 21 3 21
-2 0 -4 -28 -19 -62 -32 -35 -13 -93 -41 -130 -62 -40 -22 -68 -33 -69 -26 0
9 -2 9 -6 0 -2 -7 -28 -26 -56 -43 -29 -17 -62 -38 -74 -46 -13 -9 -23 -14
-23 -12 0 7 119 88 129 88 5 0 12 7 15 16 3 8 10 13 16 9 12 -8 50 16 50 32 0
7 10 12 23 10 14 -1 21 3 19 11 -1 8 2 11 8 7 6 -4 22 1 36 10 14 9 28 14 30
12 3 -3 16 6 29 19 25 25 41 32 29 13z m416 1 c0 -5 -5 -10 -11 -10 -5 0 -7 5
-4 10 3 6 8 10 11 10 2 0 4 -4 4 -10z m75 -28 c-8 -9 -25 20 -18 31 3 5 10 2
15 -7 6 -10 7 -20 3 -24z m22 16 c-3 -8 -6 -5 -6 6 -1 11 2 17 5 13 3 -3 4
-12 1 -19z m792 -15 c0 -35 -1 -36 -10 -14 -5 14 -7 31 -5 38 10 24 16 13 15
-24z m-459 11 c0 -8 -5 -12 -10 -9 -6 4 -8 11 -5 16 9 14 15 11 15 -7z m-696
-20 c4 -10 1 -14 -6 -12 -15 5 -23 28 -10 28 5 0 13 -7 16 -16z m3637 3 c1 -7
1 -16 0 -20 -1 -5 3 -6 9 -2 5 3 10 13 10 21 0 8 4 13 9 10 5 -3 7 -16 3 -29
-5 -19 -3 -20 10 -10 11 10 17 10 26 1 9 -9 12 -9 12 1 0 11 3 11 15 1 12 -10
15 -10 15 1 0 12 2 12 9 0 5 -7 14 -10 21 -6 8 5 11 1 8 -11 -2 -11 -11 -17
-19 -15 -8 2 -32 5 -54 7 -68 8 -80 10 -93 18 -6 4 -12 3 -12 -2 0 -5 -10 -8
-22 -7 -13 1 -22 5 -20 8 1 4 2 11 2 17 0 5 7 7 15 4 9 -4 15 0 15 8 0 17 40
22 41 5z m-4251 -11 c0 -8 6 -17 13 -19 9 -4 9 -6 0 -6 -7 -1 -17 8 -23 19 -7
14 -7 20 0 20 5 0 10 -6 10 -14z m575 -4 c-3 -3 -11 0 -18 7 -9 10 -8 11 6 5
10 -3 15 -9 12 -12z m1342 -14 c-3 -7 -5 -2 -5 12 0 14 2 19 5 13 2 -7 2 -19
0 -25z m-1172 12 c-3 -5 -11 -10 -16 -10 -6 0 -7 5 -4 10 3 6 11 10 16 10 6 0
7 -4 4 -10z m100 0 c7 -12 -2 -12 -30 0 -19 8 -19 9 2 9 12 1 25 -3 28 -9z
m2312 -12 c-3 -8 -6 -5 -6 6 -1 11 2 17 5 13 3 -3 4 -12 1 -19z m-2621 -1 c5
-4 1 -5 -9 -1 -9 3 -17 2 -17 -4 0 -6 -9 -8 -20 -5 -11 3 -18 8 -16 12 6 9 52
8 62 -2z m174 1 c0 -4 -6 -8 -12 -8 -7 0 -31 -3 -53 -5 l-40 -6 35 13 c40 15
70 17 70 6z m2660 -14 c0 -17 16 -19 23 -1 3 6 6 1 6 -12 1 -17 -3 -22 -14
-17 -9 3 -15 0 -15 -9 0 -8 -4 -15 -9 -15 -5 0 -8 18 -8 39 2 35 17 49 17 15z
m-2070 2 c0 -16 -18 -31 -27 -22 -8 8 5 36 17 36 5 0 10 -6 10 -14z m-240 -23
c0 -20 -23 -11 -26 9 -1 11 3 15 12 11 8 -3 14 -12 14 -20z m690 7 c0 -5 -5
-10 -11 -10 -5 0 -7 5 -4 10 3 6 8 10 11 10 2 0 4 -4 4 -10z m1442 -35 c-5
-16 -11 -25 -14 -20 -9 15 3 68 13 58 5 -5 5 -22 1 -38z m-3152 25 c0 -5 -4
-10 -10 -10 -5 0 -10 5 -10 10 0 6 5 10 10 10 6 0 10 -4 10 -10z m457 -9 c1
-13 -10 -25 -33 -36 -19 -9 -34 -21 -34 -27 0 -6 -3 -8 -7 -5 -8 9 27 47 44
47 7 0 13 9 13 20 0 26 15 26 17 1z m93 11 c0 -9 -61 -34 -68 -28 -4 5 48 35
61 36 4 0 7 -4 7 -8z m1200 -7 c7 -8 8 -15 2 -15 -5 0 -15 7 -22 15 -7 8 -8
15 -2 15 5 0 15 -7 22 -15z m-927 -27 c9 -9 17 -21 17 -27 0 -6 5 -11 10 -11
7 0 7 7 -1 22 -10 19 -9 20 7 13 11 -4 34 -11 53 -15 45 -11 86 -43 84 -65 -2
-23 23 -49 38 -39 8 4 7 9 -2 15 -11 7 -11 11 -1 21 11 11 17 8 32 -12 11 -14
20 -21 20 -16 0 5 9 1 20 -9 10 -9 26 -15 34 -12 10 4 17 -2 22 -16 4 -12 14
-27 23 -34 9 -6 13 -15 9 -18 -4 -4 3 -16 15 -25 12 -10 24 -14 28 -9 3 5 16
-5 28 -22 13 -18 19 -29 12 -25 -12 8 -14 -4 -5 -28 3 -9 16 -17 28 -17 16 -1
17 -2 4 -6 -21 -5 -21 -2 -7 -42 10 -30 29 -43 29 -20 0 5 5 7 11 3 8 -4 8 -9
0 -17 -6 -6 -11 -19 -11 -29 0 -10 -4 -18 -10 -18 -5 0 -10 -7 -10 -15 0 -8 9
-15 20 -15 11 0 20 -3 21 -7 10 -65 6 -79 -33 -125 -22 -27 -46 -48 -54 -48
-8 0 -19 -9 -26 -20 -7 -11 -18 -20 -25 -20 -6 0 -13 -4 -15 -8 -3 -8 -189
-81 -273 -107 -67 -21 -337 -75 -346 -69 -4 2 -10 43 -14 92 -10 138 -32 218
-81 292 -55 85 -114 152 -150 170 -16 8 -51 30 -79 48 -27 17 -59 32 -70 32
-11 0 -40 6 -64 13 l-44 14 68 42 c125 79 256 137 376 165 63 15 128 31 144
35 53 14 150 8 168 -11z m2474 -10 c-3 -7 -5 -2 -5 12 0 14 2 19 5 13 2 -7 2
-19 0 -25z m-2924 -12 c-17 -24 -52 -41 -62 -30 -7 7 21 24 30 18 4 -2 16 6
26 20 10 13 20 23 21 21 2 -2 -4 -15 -15 -29z m962 25 c3 -5 1 -12 -5 -16 -5
-3 -10 1 -10 9 0 18 6 21 15 7z m482 -13 c-3 -8 -6 -5 -6 6 -1 11 2 17 5 13 3
-3 4 -12 1 -19z m237 6 c3 -8 2 -12 -4 -9 -6 3 -10 10 -10 16 0 14 7 11 14 -7z
m-268 -62 c-11 -10 -14 3 -7 38 l6 35 3 -33 c2 -19 1 -36 -2 -40z m-650 30
c-4 -3 -14 2 -24 12 -16 18 -16 18 6 6 13 -6 21 -14 18 -18z m361 5 c13 5 15
1 10 -23 -3 -17 -2 -36 4 -44 6 -11 9 -8 9 13 0 15 5 27 10 27 6 0 10 -14 10
-31 0 -16 4 -28 9 -24 14 8 24 -32 13 -52 -8 -13 -6 -21 6 -30 16 -11 16 -12
0 -13 -10 0 -15 -6 -13 -12 6 -18 -17 -45 -37 -45 -10 0 -18 4 -18 9 0 4 9 8
20 8 11 0 20 3 20 8 -1 15 -29 44 -38 39 -4 -3 -6 7 -4 24 3 17 0 29 -7 29 -6
0 -11 -10 -12 -22 0 -21 -1 -21 -8 -4 -5 14 -10 16 -15 8 -4 -7 -16 -12 -27
-12 -15 0 -19 7 -19 31 0 34 19 31 21 -4 1 -13 4 -8 8 13 4 20 12 34 19 33 8
-2 12 14 13 50 1 28 3 44 6 35 3 -11 10 -15 20 -11z m-1200 -32 c-4 -8 -12
-15 -19 -14 -10 0 -10 2 0 6 6 2 12 12 12 21 0 8 3 13 6 9 4 -3 4 -13 1 -22z
m1133 -16 c0 -10 -4 -19 -10 -19 -5 0 -10 12 -10 26 0 14 4 23 10 19 6 -3 10
-15 10 -26z m-100 0 c0 -6 -4 -7 -10 -4 -5 3 -10 11 -10 16 0 6 5 7 10 4 6 -3
10 -11 10 -16z m40 11 c0 -5 -2 -10 -4 -10 -3 0 -8 5 -11 10 -3 6 -1 10 4 10
6 0 11 -4 11 -10z m-1116 -7 c-5 -5 -12 -12 -16 -18 -4 -6 -8 -2 -8 8 0 9 7
17 17 17 9 0 12 -3 7 -7z m1137 -64 l-9 -34 -1 37 c-1 20 2 45 6 55 7 16 8 16
11 -3 2 -12 -1 -37 -7 -55z m914 61 c3 -5 1 -10 -4 -10 -6 0 -11 5 -11 10 0 6
2 10 4 10 3 0 8 -4 11 -10z m-1070 -30 c16 -16 26 -30 23 -30 -3 0 -19 14 -36
30 -18 17 -28 30 -24 30 5 0 21 -13 37 -30z m519 15 c3 -8 1 -15 -4 -15 -6 0
-10 7 -10 15 0 8 2 15 4 15 2 0 6 -7 10 -15z m-24 -11 c0 -8 -4 -12 -10 -9 -5
3 -10 10 -10 16 0 5 5 9 10 9 6 0 10 -7 10 -16z m-1720 -24 c-14 -11 -29 -20
-35 -20 -5 0 4 9 20 20 38 25 48 25 15 0z m170 9 c0 -3 -21 -18 -47 -33 -27
-14 -58 -34 -70 -42 -13 -9 -23 -14 -23 -11 0 2 25 22 55 42 30 21 53 41 50
44 -2 4 5 7 16 7 10 0 19 -3 19 -7z m1192 -44 c3 -14 1 -25 -4 -25 -10 0 -28
42 -21 53 7 13 20 -1 25 -28z m418 19 c0 -8 -4 -12 -10 -9 -5 3 -10 10 -10 16
0 5 5 9 10 9 6 0 10 -7 10 -16z m1450 -99 c-2 -5 -8 10 -11 35 -4 25 -4 50 0
55 7 12 19 -76 11 -90z m-1870 22 c0 -7 14 -21 30 -31 17 -9 28 -21 25 -26 -3
-5 8 -11 24 -15 28 -6 46 -27 34 -39 -4 -3 -17 1 -30 9 -13 9 -29 13 -35 9 -6
-4 -8 -3 -5 4 9 13 -2 42 -15 42 -15 0 -48 40 -48 57 0 8 5 11 10 8 6 -3 10
-12 10 -18z m77 1 c-3 -8 -6 -5 -6 6 -1 11 2 17 5 13 3 -3 4 -12 1 -19z m33 1
c0 -6 -4 -7 -10 -4 -5 3 -10 11 -10 16 0 6 5 7 10 4 6 -3 10 -11 10 -16z
m-1470 -14 c-13 -14 -26 -23 -28 -20 -4 4 38 44 47 45 3 0 -6 -11 -19 -25z
m3477 -35 c4 -12 7 -11 13 5 8 18 9 18 10 -5 1 -24 1 -24 15 -6 14 19 15 18
16 -10 l1 -29 13 30 13 30 4 -30 4 -30 11 25 c11 24 12 24 12 3 1 -28 21 -31
21 -4 0 11 5 23 12 27 8 5 9 2 5 -10 -4 -10 -1 -19 8 -22 8 -4 15 -12 15 -20
0 -8 5 -14 10 -14 6 0 10 7 10 16 0 8 4 12 10 9 5 -3 8 -22 5 -41 -2 -18 -2
-34 0 -34 2 0 17 12 32 26 l28 26 6 -33 c4 -19 7 -28 8 -21 1 17 21 15 21 -2
0 -18 35 -27 49 -13 8 8 11 7 11 -2 0 -7 -9 -15 -20 -18 -21 -6 -27 -28 -10
-38 6 -3 10 -2 10 4 0 6 10 16 23 22 21 11 21 11 6 -7 -11 -13 -14 -27 -8 -44
4 -14 7 -20 8 -14 2 20 39 56 46 44 3 -5 -1 -17 -9 -26 -20 -20 -20 -25 0 -17
14 5 15 3 5 -15 -12 -22 1 -32 14 -12 11 18 20 10 21 -20 1 -24 -1 -28 -12
-19 -8 6 -14 8 -15 3 0 -5 -2 -21 -4 -35 -2 -20 3 -30 21 -39 30 -16 31 -30 3
-30 -16 0 -20 -5 -16 -20 3 -10 -2 -25 -10 -32 -12 -10 -15 -9 -13 7 4 39 0
57 -13 52 -8 -3 -14 4 -15 19 -1 13 3 24 9 24 6 0 7 5 2 13 -8 12 -9 17 -11
50 -2 22 -29 19 -56 -5 -11 -10 -22 -16 -25 -13 -2 3 4 11 14 19 15 11 16 18
7 45 -6 17 -8 39 -5 49 6 14 4 15 -9 5 -8 -7 -18 -9 -23 -5 -10 10 5 -41 16
-52 16 -18 9 -34 -18 -41 -15 -3 -39 -15 -54 -26 -44 -31 -89 -32 -116 0 -13
14 -21 31 -20 36 5 12 60 13 68 1 8 -10 39 50 39 73 0 10 -10 4 -30 -19 -27
-32 -32 -34 -51 -22 -16 10 -24 11 -29 2 -5 -8 -10 -7 -19 3 -9 12 -9 21 0 41
7 14 16 26 21 26 4 0 8 6 8 14 0 15 47 15 83 1 10 -4 17 -3 17 4 0 6 7 8 15 5
8 -4 15 -1 15 4 0 14 -64 32 -90 25 -12 -3 -20 0 -20 6 0 7 5 9 10 6 6 -3 10
2 10 11 0 16 -2 16 -21 -2 -17 -15 -23 -16 -40 -6 -11 7 -19 8 -19 2 0 -5 -4
-10 -10 -10 -5 0 -10 7 -10 15 0 11 -5 12 -25 5 -15 -6 -26 -6 -30 1 -4 5 -10
7 -14 4 -5 -2 -11 9 -15 26 -10 50 -6 67 8 35 l13 -29 8 54 c6 36 10 46 12 29
2 -14 6 -32 10 -40z m-3525 -2 c-7 -7 -12 -8 -12 -2 0 14 12 26 19 19 2 -3 -1
-11 -7 -17z m3368 12 c0 -5 -5 -10 -11 -10 -5 0 -7 5 -4 10 3 6 8 10 11 10 2
0 4 -4 4 -10z m-3420 -55 c-18 -19 -35 -33 -37 -31 -5 5 61 72 66 69 3 -2 -11
-19 -29 -38z m3850 20 c0 -14 -4 -25 -9 -25 -5 0 -8 11 -8 25 0 14 3 25 8 25
5 0 9 -11 9 -25z m-1583 -17 c-3 -8 -6 -5 -6 6 -1 11 2 17 5 13 3 -3 4 -12 1
-19z m1234 -21 c-10 -9 -11 -8 -5 6 3 10 9 15 12 12 3 -3 0 -11 -7 -18z m1469
13 c0 -5 -4 -10 -10 -10 -5 0 -10 5 -10 10 0 6 5 10 10 10 6 0 10 -4 10 -10z
m-4830 -27 c0 -10 -4 -14 -8 -8 -4 6 -11 13 -16 18 -5 4 -2 7 7 7 10 0 17 -8
17 -17z m1525 -4 c-4 -5 -2 -9 2 -9 12 0 83 -70 83 -82 0 -5 -13 1 -30 15 -16
14 -43 28 -60 32 -34 8 -50 25 -23 26 13 1 11 3 -7 9 -24 8 -24 8 -2 9 12 1
22 6 22 12 0 5 5 7 10 4 6 -4 8 -11 5 -16z m-1795 -4 c0 -2 -10 -9 -22 -15
-22 -11 -22 -10 -4 4 21 17 26 19 26 11z m430 -5 c0 -5 -4 -10 -10 -10 -5 0
-10 5 -10 10 0 6 5 10 10 10 6 0 10 -4 10 -10z m-395 -40 c-21 -21 -43 -36
-49 -33 -6 4 -5 8 4 11 8 3 28 18 43 34 16 15 31 28 35 28 3 0 -11 -18 -33
-40z m1956 18 c10 -13 18 -30 18 -38 0 -9 -9 -4 -24 15 -24 29 -31 45 -19 45
3 0 14 -10 25 -22z m-1779 -13 c3 3 8 -1 11 -9 4 -9 1 -18 -5 -22 -16 -10 -78
-14 -79 -6 0 4 -2 15 -4 24 -2 10 1 20 6 24 8 5 13 -9 10 -28 0 -5 4 -8 9 -8
6 0 10 12 10 27 0 25 1 25 18 10 10 -10 21 -15 24 -12z m98 -5 c0 -11 5 -20
10 -20 6 0 10 8 10 18 0 14 2 15 10 2 6 -10 4 -20 -7 -32 -19 -21 -47 -24 -40
-4 3 7 1 18 -5 24 -11 11 -3 32 13 32 5 0 9 -9 9 -20z m72 -22 c-6 -6 -8 -1
-7 14 3 32 7 36 12 14 3 -10 1 -22 -5 -28z m-112 3 c8 -17 7 -20 -10 -18 -11
1 -20 2 -20 3 0 7 13 34 16 34 2 0 8 -9 14 -19z m-140 -23 c0 -5 -10 -8 -22
-8 -12 0 -29 -7 -39 -16 -11 -10 -25 -13 -38 -9 -21 6 -20 25 0 25 6 0 7 -4 4
-10 -8 -13 1 -13 26 0 10 6 19 17 19 25 0 28 49 21 50 -7z m2237 10 c-3 -8 -6
-5 -6 6 -1 11 2 17 5 13 3 -3 4 -12 1 -19z m63 7 c0 -8 -4 -15 -10 -15 -5 0
-10 7 -10 15 0 8 5 15 10 15 6 0 10 -7 10 -15z m-2460 -30 c-7 -9 -27 -25 -44
-37 -23 -15 -21 -11 9 16 43 38 55 45 35 21z m526 -36 c1 -22 7 -46 13 -53 6
-7 8 -16 4 -19 -10 -11 -33 -8 -33 4 0 5 5 7 11 3 7 -4 10 -1 7 7 -3 8 -12 14
-22 14 -9 0 -21 6 -25 14 -12 19 -2 43 16 37 8 -3 12 -2 8 3 -6 11 5 44 13 36
3 -3 7 -24 8 -46z m1321 12 c-7 -39 -16 -53 -32 -47 -8 3 -16 0 -18 -7 -5 -15
-13 -8 -22 21 -6 21 -4 23 13 18 17 -6 19 -3 15 14 -6 21 12 28 20 8 3 -8 6
-6 6 5 1 9 6 17 12 17 6 0 8 -12 6 -29z m601 -15 c12 -3 11 -4 -3 -3 -12 1
-20 10 -21 22 -1 14 0 15 3 3 2 -9 12 -19 21 -22z m41 2 c-1 -41 -1 -42 -11
-15 -5 15 -7 34 -4 42 10 27 16 16 15 -27z m-1939 17 c-7 -9 -15 -13 -17 -11
-7 7 7 26 19 26 6 0 6 -6 -2 -15z m-92 -20 c-3 -3 -9 2 -12 12 -6 14 -5 15 5
6 7 -7 10 -15 7 -18z m3787 5 c-3 -5 -11 -10 -16 -10 -6 0 -7 5 -4 10 3 6 11
10 16 10 6 0 7 -4 4 -10z m-2484 -25 c0 6 4 1 8 -10 10 -24 5 -35 -15 -35 -9
0 -14 11 -14 33 0 24 3 28 10 17 5 -8 10 -10 11 -5z m219 -1 c0 -9 -61 -64
-71 -64 -4 0 -31 -13 -58 -29 -45 -27 -50 -28 -48 -11 1 11 7 22 15 25 8 3 11
0 7 -8 -4 -6 -1 -5 7 3 7 8 20 15 28 15 8 0 14 5 13 12 -2 7 6 17 17 23 14 7
20 7 20 0 0 -5 -7 -10 -17 -10 -9 0 -13 -3 -10 -7 11 -10 58 19 53 33 -3 8 1
11 10 7 7 -3 14 0 14 6 0 6 5 11 10 11 6 0 10 -3 10 -6z m-1457 -87 c17 -27
12 -43 -9 -27 -17 15 -97 -18 -90 -36 3 -7 1 -16 -5 -19 -5 -4 -7 -10 -4 -15
9 -15 -21 -30 -56 -27 -40 2 -53 15 -34 34 8 7 12 20 9 28 -4 11 1 15 17 15
45 0 53 15 25 45 -14 15 -26 32 -26 36 0 5 17 17 37 28 l38 19 41 -29 c22 -15
48 -39 57 -52z m1934 61 c-3 -8 -6 -5 -6 6 -1 11 2 17 5 13 3 -3 4 -12 1 -19z
m-1792 2 c3 -5 1 -10 -4 -10 -6 0 -11 5 -11 10 0 6 2 10 4 10 3 0 8 -4 11 -10z
m3555 0 c0 -5 -4 -10 -10 -10 -5 0 -10 5 -10 10 0 6 5 10 10 10 6 0 10 -4 10
-10z m-1580 -36 c0 -8 -5 -12 -10 -9 -6 4 -8 11 -5 16 9 14 15 11 15 -7z
m1454 0 c3 -8 2 -12 -4 -9 -6 3 -10 10 -10 16 0 14 7 11 14 -7z m-4214 2 c0
-2 -8 -10 -17 -17 -16 -13 -17 -12 -4 4 13 16 21 21 21 13z m692 -28 c-15 -15
-24 -6 -16 16 5 12 10 14 17 7 8 -8 8 -14 -1 -23z m103 22 c3 -5 1 -10 -4 -10
-6 0 -11 5 -11 10 0 6 2 10 4 10 3 0 8 -4 11 -10z m3325 0 c0 -5 -5 -10 -11
-10 -5 0 -7 5 -4 10 3 6 8 10 11 10 2 0 4 -4 4 -10z m58 -58 c-10 -16 -27 -28
-42 -30 -14 -2 -26 -8 -26 -13 0 -14 -26 -11 -39 4 -8 10 -4 20 17 40 16 15
31 25 34 22 2 -3 13 4 23 15 17 19 20 19 34 5 14 -14 14 -18 -1 -43z m-3452
-32 c0 -65 11 -101 21 -72 6 15 33 16 33 0 0 -6 -3 -8 -7 -5 -3 4 -11 -1 -18
-10 -15 -21 -35 -9 -35 22 0 13 -5 27 -11 31 -6 3 -8 17 -4 31 4 16 2 22 -5
18 -5 -3 -10 -1 -10 4 0 6 6 11 14 11 9 0 12 7 9 20 -3 11 -1 20 4 20 5 0 9
-31 9 -70z m1184 44 c0 -8 -5 -12 -10 -9 -6 4 -8 11 -5 16 9 14 15 11 15 -7z
m-1150 -16 c0 -19 -2 -20 -10 -8 -13 19 -13 30 0 30 6 0 10 -10 10 -22z m1830
18 c0 -3 -4 -8 -10 -11 -5 -3 -10 -1 -10 4 0 6 5 11 10 11 6 0 10 -2 10 -4z
m319 -35 c-7 -2 -15 1 -17 8 -2 6 -8 9 -13 5 -10 -6 -12 9 -2 19 3 4 15 -1 25
-10 14 -13 16 -19 7 -22z m-55 13 c3 -8 2 -12 -4 -9 -6 3 -10 10 -10 16 0 14
7 11 14 -7z m513 -18 c-3 -41 -17 -61 -17 -23 0 25 9 57 16 57 1 0 2 -15 1
-34z m-2724 12 c30 -18 36 -27 32 -57 -2 -14 -4 -29 -4 -32 -3 -20 -161 -52
-161 -32 0 3 19 23 42 45 32 29 39 41 30 50 -17 17 -15 26 6 31 29 8 31 7 55
-5z m202 2 c3 -5 1 -10 -4 -10 -6 0 -11 5 -11 10 0 6 2 10 4 10 3 0 8 -4 11
-10z m2165 -32 c0 -5 -4 -8 -10 -8 -5 0 -10 10 -10 23 0 18 2 19 10 7 5 -8 10
-18 10 -22z m414 17 c3 -8 1 -15 -4 -15 -6 0 -10 7 -10 15 0 8 2 15 4 15 2 0
6 -7 10 -15z m-3494 -9 c0 -3 -4 -8 -10 -11 -5 -3 -10 -1 -10 4 0 6 5 11 10
11 6 0 10 -2 10 -4z m3320 -22 c0 -8 -4 -14 -10 -14 -5 0 -10 9 -10 21 0 11 5
17 10 14 6 -3 10 -13 10 -21z m-2490 6 c0 -5 -4 -10 -10 -10 -5 0 -10 5 -10
10 0 6 5 10 10 10 6 0 10 -4 10 -10z m2340 -14 c0 -8 -4 -18 -10 -21 -5 -3
-10 3 -10 14 0 12 5 21 10 21 6 0 10 -6 10 -14z m570 4 c0 -5 -4 -10 -10 -10
-5 0 -10 5 -10 10 0 6 5 10 10 10 6 0 10 -4 10 -10z m-1453 -40 c2 0 2 4 -1 9
-3 4 6 6 19 3 18 -3 25 -11 24 -26 0 -11 -3 -15 -6 -9 -3 9 -10 10 -23 3 -10
-5 -25 -7 -33 -4 -9 3 -16 -3 -20 -15 -3 -12 -12 -21 -21 -21 -10 0 -13 6 -9
16 4 12 2 15 -8 12 -8 -3 -14 -13 -14 -23 0 -10 -7 -20 -15 -23 -11 -3 -12 -2
-4 8 13 13 7 50 -7 50 -5 0 -9 -8 -9 -17 0 -15 -2 -16 -10 -3 -10 16 -11 15
-14 -29 -1 -8 -7 -16 -14 -19 -7 -2 -10 2 -6 11 3 8 -2 17 -10 20 -20 8 -21
23 -2 30 10 4 13 1 9 -9 -3 -7 -1 -14 5 -14 5 0 12 7 16 15 5 15 53 40 69 37
4 -1 7 5 7 13 0 14 4 14 36 0 20 -8 38 -15 41 -15z m801 -8 c-17 -7 -38 8 -32
22 5 12 8 12 23 -2 9 -9 13 -19 9 -20z m412 19 c0 -29 -15 -33 -18 -5 -1 13 3
24 8 24 6 0 10 -9 10 -19z m-1390 5 c0 -3 -4 -8 -10 -11 -5 -3 -10 -1 -10 4 0
6 5 11 10 11 6 0 10 -2 10 -4z m870 -22 c0 -8 -4 -12 -10 -9 -5 3 -10 10 -10
16 0 5 5 9 10 9 6 0 10 -7 10 -16z m-1281 -25 c-13 -10 -35 -19 -49 -20 -37
-3 -42 -4 -81 -21 -73 -32 -190 -69 -199 -63 -6 3 -10 3 -10 -2 0 -4 -21 -9
-47 -10 -65 -3 -45 10 72 47 55 17 110 35 122 40 14 6 25 6 28 0 4 -6 11 -10
17 -10 7 0 7 4 0 13 -8 9 -3 15 24 23 27 9 34 8 34 -2 0 -8 5 -14 10 -14 6 0
10 7 10 15 0 12 7 14 28 9 21 -4 24 -3 12 5 -12 9 -9 10 14 5 22 -5 27 -4 21
6 -6 9 -4 11 5 5 10 -6 7 -12 -11 -26z m1158 -6 c-3 -10 -5 -4 -5 12 0 17 2
24 5 18 2 -7 2 -21 0 -30z m-429 -8 c-12 -13 -25 -22 -30 -19 -4 3 -8 0 -8 -6
0 -6 -4 -8 -10 -5 -5 3 -10 16 -10 28 0 12 4 18 8 12 12 -17 31 -16 44 4 7 11
15 18 20 15 4 -3 -2 -16 -14 -29z m609 13 c-3 -8 -6 -5 -6 6 -1 11 2 17 5 13
3 -3 4 -12 1 -19z m398 2 c-3 -5 -12 -10 -18 -10 -7 0 -6 4 3 10 19 12 23 12
15 0z m915 0 c0 -5 -5 -10 -11 -10 -5 0 -7 5 -4 10 3 6 8 10 11 10 2 0 4 -4 4
-10z m60 0 c0 -5 -4 -10 -10 -10 -5 0 -10 5 -10 10 0 6 5 10 10 10 6 0 10 -4
10 -10z m-1893 -11 c5 11 7 11 14 0 8 -12 11 -11 19 1 8 13 10 12 10 -2 0 -21
45 -25 54 -5 3 6 4 3 3 -8 -1 -14 4 -20 16 -19 9 1 17 -4 17 -12 0 -18 -14
-18 -32 -1 -7 7 -25 12 -40 10 -15 -1 -30 3 -33 8 -4 5 -11 7 -16 3 -6 -3 -18
-2 -27 2 -9 4 -27 6 -39 5 -13 -1 -23 3 -23 9 0 7 8 9 19 5 11 -3 23 -1 26 6
6 8 10 7 17 -2 8 -12 10 -12 15 0z m503 2 c0 -6 -4 -13 -10 -16 -5 -3 -10 1
-10 9 0 9 5 16 10 16 6 0 10 -4 10 -9z m90 5 c0 -3 -4 -8 -10 -11 -5 -3 -10
-1 -10 4 0 6 5 11 10 11 6 0 10 -2 10 -4z m50 -6 c0 -5 -4 -10 -10 -10 -5 0
-10 5 -10 10 0 6 5 10 10 10 6 0 10 -4 10 -10z m1147 -12 c-3 -8 -6 -5 -6 6
-1 11 2 17 5 13 3 -3 4 -12 1 -19z m-1967 2 c0 -5 -12 -12 -27 -15 -16 -3 -43
-10 -60 -16 -18 -6 -37 -7 -43 -4 -5 3 -10 1 -10 -4 0 -6 -5 -11 -12 -11 -7 0
-24 -12 -39 -26 -23 -22 -30 -24 -49 -14 -13 7 -19 17 -16 26 3 8 2 12 -3 9
-6 -3 -9 -14 -8 -25 1 -10 4 -17 8 -14 16 10 16 -26 0 -40 -21 -19 -38 -21
-23 -3 12 14 12 11 2 65 -4 23 -3 42 1 42 5 0 8 3 8 8 -3 18 2 22 20 12 14 -7
19 -18 16 -40 -2 -16 0 -32 5 -35 6 -4 7 1 3 11 -5 13 -3 16 10 11 9 -3 21 1
29 11 12 15 11 16 -4 3 -11 -8 -18 -9 -18 -3 0 6 5 14 10 17 6 4 7 12 3 18 -3
7 3 4 15 -7 18 -16 24 -17 37 -6 9 7 18 10 22 6 3 -3 17 1 31 10 13 8 30 13
38 10 8 -3 14 -2 14 2 0 4 9 8 20 9 11 1 20 -2 20 -7z m402 -24 c10 -7 15 -16
12 -19 -4 -3 5 -9 20 -13 14 -3 26 -12 26 -20 0 -11 -7 -11 -41 1 -23 8 -46
12 -52 8 -6 -3 -7 -1 -3 5 5 8 -2 12 -18 12 -14 0 -26 5 -26 11 0 6 7 9 15 5
9 -3 15 0 15 9 0 18 29 19 52 1z m-1919 -21 c10 -14 13 -25 7 -25 -5 0 -10 -6
-10 -14 0 -10 13 -16 38 -19 l37 -4 -37 -1 c-39 -2 -58 17 -65 66 -5 29 7 28
30 -3z m1049 3 c5 -33 32 -34 45 -1 11 27 11 27 8 -9 -2 -21 -11 -45 -19 -54
-9 -8 -16 -22 -16 -30 0 -8 -4 -12 -10 -9 -6 4 -4 16 6 31 21 31 4 31 -26 -1
-13 -14 -19 -25 -13 -25 16 0 24 -28 11 -36 -7 -4 -8 -3 -4 4 4 7 3 12 -3 12
-5 0 -13 -5 -17 -11 -4 -7 -9 -8 -13 -1 -4 7 -13 5 -25 -4 -17 -12 -18 -14 -3
-14 28 0 19 -17 -12 -23 -34 -7 -48 -43 -26 -67 18 -20 19 -31 3 -27 -7 1 -14
-8 -16 -20 -6 -38 -18 -26 -15 15 3 36 2 36 -7 7 -5 -16 -7 -39 -4 -52 4 -14
2 -23 -5 -23 -6 0 -11 7 -11 15 0 8 -4 15 -10 15 -5 0 -10 -9 -10 -20 0 -12 7
-20 16 -20 9 0 18 -9 21 -20 3 -11 9 -20 14 -20 5 0 9 -4 9 -10 0 -5 -7 -7
-15 -4 -10 4 -15 0 -15 -11 0 -15 -3 -15 -15 -5 -14 11 -14 10 -6 -14 6 -14 7
-27 3 -27 -11 -3 -35 -6 -54 -8 -11 0 -18 -9 -18 -22 0 -18 -2 -19 -15 -9 -12
10 -19 10 -27 2 -9 -9 -9 -12 0 -12 7 0 12 -4 12 -9 0 -14 -72 0 -90 18 -13
13 -16 10 -24 -27 -6 -30 -13 -41 -25 -40 -10 2 -17 -7 -21 -27 -5 -24 -10
-29 -28 -28 -18 2 -22 -2 -21 -20 3 -38 -1 -57 -12 -57 -6 0 -8 9 -3 22 6 20
5 21 -8 10 -13 -11 -16 -5 -22 39 -4 28 -5 54 -1 57 3 3 5 -4 5 -16 0 -28 17
-37 25 -13 7 22 -22 101 -37 101 -6 0 -8 -9 -5 -19 3 -14 -5 -28 -27 -46 -25
-21 -28 -28 -16 -35 8 -5 12 -12 9 -15 -8 -8 -39 5 -39 16 0 5 -7 9 -15 9 -8
0 -15 9 -15 19 0 11 -4 23 -10 26 -16 10 -12 -41 5 -55 8 -7 15 -20 15 -29 -1
-14 -3 -13 -15 3 -15 20 -37 13 -28 -9 3 -9 -1 -15 -9 -15 -8 0 -26 -6 -41
-12 -20 -10 -27 -20 -27 -42 0 -21 3 -26 13 -18 17 14 81 22 67 8 -5 -5 -10
-17 -9 -25 0 -11 2 -12 6 -3 2 6 8 10 13 7 5 -3 11 4 15 15 8 24 14 25 43 4
21 -14 22 -14 22 5 0 23 -16 37 -23 19 -2 -7 -7 -10 -11 -7 -13 12 5 36 27 34
20 -2 22 -7 19 -47 -2 -32 1 -50 13 -62 15 -15 15 -16 -9 -16 -14 0 -26 -4
-26 -10 0 -5 -4 -10 -10 -10 -5 0 -10 7 -10 15 0 8 -4 15 -10 15 -5 0 -10 -6
-10 -12 0 -9 -3 -9 -8 -2 -4 6 -15 14 -26 17 -13 5 -17 3 -13 -8 4 -8 2 -17
-4 -20 -5 -4 -14 7 -20 24 -6 17 -14 31 -17 31 -16 -1 -34 -19 -28 -28 12 -20
-6 -42 -35 -42 -19 0 -29 -5 -29 -15 0 -8 -5 -15 -11 -15 -5 0 -7 -5 -3 -11 5
-9 -1 -10 -22 -5 -21 5 -25 4 -14 -4 12 -8 10 -10 -10 -10 -14 0 -32 9 -40 20
-19 26 -30 25 -30 -1 0 -13 5 -19 13 -16 7 3 24 -4 38 -14 25 -19 18 -23 -16
-10 -26 11 -55 -5 -55 -29 0 -10 -4 -21 -9 -24 -5 -3 -7 -24 -5 -46 2 -22 -1
-40 -6 -40 -6 0 -10 11 -10 25 0 14 -4 25 -10 25 -5 0 -10 -8 -10 -18 0 -10
-9 -28 -20 -40 -17 -18 -18 -22 -5 -22 25 0 12 -44 -14 -48 -17 -3 -20 -8 -15
-24 5 -18 4 -19 -9 -7 -13 12 -13 16 1 37 14 22 14 23 -9 21 -44 -4 -59 1 -60
19 0 15 -1 15 -8 -2 -7 -18 -8 -18 -14 -2 -4 9 -11 14 -17 11 -6 -3 -13 1 -16
9 -3 9 -11 13 -17 9 -6 -4 -3 -11 7 -19 26 -19 11 -33 -30 -29 -29 3 -37 0
-41 -16 -6 -23 -23 -26 -23 -3 0 8 -4 13 -9 10 -5 -4 -12 0 -15 6 -5 11 -7 11
-12 0 -3 -6 -10 -10 -15 -6 -5 3 -9 0 -9 -5 0 -6 -4 -11 -10 -11 -5 0 -10 7
-10 16 0 8 -4 13 -9 10 -14 -9 -41 4 -41 20 0 8 5 14 10 14 17 0 11 28 -7 40
-15 9 -14 10 7 4 26 -7 51 -34 44 -46 -2 -4 1 -10 7 -14 9 -5 10 1 5 19 -9 37
7 41 35 9 27 -30 69 -41 69 -17 0 11 -7 14 -24 9 -21 -5 -26 -1 -36 31 -6 20
-9 42 -6 50 3 8 1 17 -3 20 -11 6 -5 79 9 105 15 29 12 35 -9 16 -14 -13 -20
-14 -28 -4 -24 32 -21 46 18 79 37 31 51 59 29 59 -5 0 -10 7 -10 16 0 8 5 12
10 9 6 -3 10 3 10 15 0 12 -4 18 -10 15 -5 -3 -10 -2 -10 3 0 18 29 21 40 4 8
-12 13 -14 16 -4 3 6 16 12 29 12 12 0 28 7 35 15 7 8 16 12 21 9 5 -3 9 -1 9
5 0 5 -6 12 -12 14 -7 3 -1 6 13 6 16 1 29 8 33 19 3 9 12 27 20 40 l13 22 11
-22 c10 -21 11 -20 11 14 1 20 6 40 11 43 6 3 10 1 10 -4 0 -6 4 -11 10 -11 5
0 7 6 4 14 -3 8 -1 17 5 21 6 3 11 -2 11 -12 1 -15 3 -14 13 5 7 12 16 19 20
16 4 -4 7 5 7 19 0 17 5 27 15 27 8 0 15 5 15 10 0 6 9 10 20 10 11 0 20 5 20
10 0 6 -8 10 -17 10 -13 0 -12 4 7 14 14 7 30 9 35 5 12 -9 57 25 47 36 -4 4
5 5 21 1 17 -4 27 -2 27 4 0 6 8 10 18 8 11 -2 25 2 33 8 8 7 32 14 54 17 80
11 105 19 105 34 0 10 6 12 19 8 10 -3 25 0 32 7 8 7 23 15 34 16 11 2 25 8
31 13 6 5 15 4 22 -3 9 -9 12 -8 12 5 0 9 8 17 18 18 10 0 12 3 5 6 -7 2 -13
8 -13 12 0 9 112 7 127 -2 7 -5 22 -3 34 4 17 9 19 13 8 20 -10 6 -8 9 9 9 12
0 22 -5 22 -10 0 -6 16 -10 35 -8 31 2 35 5 35 29 0 21 7 29 30 38 17 5 37 8
45 5 10 -4 15 0 15 15 0 12 5 21 10 21 6 0 10 -5 10 -12 0 -6 9 -3 20 7 12 10
18 25 16 32 -3 7 1 13 9 13 7 0 15 -10 17 -22z m-92 2 c0 -5 -7 -10 -16 -10
-8 0 -12 5 -9 10 3 6 10 10 16 10 5 0 9 -4 9 -10z m-30 -34 c0 -3 -4 -8 -10
-11 -5 -3 -10 -1 -10 4 0 6 5 11 10 11 6 0 10 -2 10 -4z m257 -18 c-3 -8 -6
-5 -6 6 -1 11 2 17 5 13 3 -3 4 -12 1 -19z m3075 -8 c-4 -30 -22 -33 -22 -4 0
8 -4 13 -9 10 -5 -3 -7 -15 -4 -26 3 -11 1 -20 -4 -20 -8 0 -9 10 -4 52 1 5
16 12 42 17 3 0 4 -12 1 -29z m-5014 8 c10 -10 15 -10 20 -1 6 10 39 10 112
-1 14 -2 48 -6 75 -10 97 -14 143 -29 148 -48 4 -13 0 -18 -15 -18 -10 0 -16
5 -13 10 4 6 -5 10 -20 10 -15 0 -24 -4 -20 -10 3 -5 2 -10 -4 -10 -5 0 -12 4
-15 9 -3 4 -46 7 -96 7 -49 -1 -90 1 -90 5 0 8 -88 4 -119 -6 -22 -7 -30 10
-8 18 10 4 10 7 0 18 -21 22 -17 29 28 38 3 0 11 -5 17 -11z m1487 2 c-11 -5
-29 -8 -40 -8 -16 0 -15 2 5 8 34 11 60 11 35 0z m1270 0 c3 -5 1 -10 -4 -10
-6 0 -11 5 -11 10 0 6 2 10 4 10 3 0 8 -4 11 -10z m2745 -9 c0 -5 -9 -11 -20
-14 -23 -6 -25 -2 -7 17 12 14 27 12 27 -3z m-4321 6 c-2 -2 -12 -9 -21 -16
-15 -11 -18 -11 -18 1 0 7 10 14 21 15 12 1 20 1 18 0z m411 -17 c0 -5 -4 -10
-10 -10 -5 0 -10 5 -10 10 0 6 5 10 10 10 6 0 10 -4 10 -10z m-514 -11 c5 -8
9 -8 14 1 4 7 13 9 19 6 22 -14 10 -25 -25 -22 -19 1 -37 0 -39 -4 -2 -3 -16
-6 -32 -5 -15 0 -31 -4 -35 -10 -5 -6 -11 -5 -18 5 -12 19 -3 27 35 33 57 8
74 7 81 -4z m-637 -25 c13 -9 26 -13 30 -8 9 13 81 18 81 5 0 -6 7 -8 15 -5 8
4 15 1 15 -5 0 -6 5 -11 11 -11 5 0 7 5 4 10 -10 16 11 12 25 -5 18 -22 30
-19 30 8 0 16 3 18 9 8 5 -7 13 -11 18 -8 5 3 24 9 41 12 24 4 32 2 32 -9 0
-8 8 -20 18 -25 18 -11 14 -13 -30 -16 -17 -1 -25 2 -21 8 3 6 -4 3 -18 -6
-26 -19 -54 -23 -44 -7 3 6 -3 11 -14 11 -34 2 -61 1 -66 -1 -15 -7 -31 -4
-43 7 -8 7 -18 11 -23 7 -6 -3 -17 0 -26 8 -9 7 -14 8 -10 2 7 -12 -57 -14
-68 -2 -4 4 -13 4 -20 2 -7 -3 -15 2 -19 12 -5 13 -2 15 19 12 13 -3 22 -1 19
3 -8 14 10 10 35 -7z m501 -4 c0 -11 -5 -20 -11 -20 -5 0 -7 5 -4 10 3 6 -3
10 -14 10 -11 0 -19 -6 -17 -12 1 -7 1 -10 -1 -6 -2 4 -11 4 -19 1 -8 -3 -14
1 -14 9 0 10 11 15 31 16 17 0 34 3 37 6 9 10 12 7 12 -14z m334 5 c-4 -8 -8
-15 -10 -15 -2 0 -4 7 -4 15 0 8 4 15 10 15 5 0 7 -7 4 -15z m1911 6 c3 -5 1
-12 -5 -16 -5 -3 -10 1 -10 9 0 18 6 21 15 7z m-2335 -16 c0 -8 -4 -15 -9 -15
-5 0 -16 -3 -25 -6 -12 -4 -16 0 -16 15 0 16 6 21 25 21 16 0 25 -6 25 -15z
m-60 -5 c0 -5 -4 -10 -10 -10 -5 0 -10 5 -10 10 0 6 5 10 10 10 6 0 10 -4 10
-10z m397 4 c-3 -3 -12 -4 -19 -1 -8 3 -5 6 6 6 11 1 17 -2 13 -5z m793 -18
c0 -3 -4 -8 -10 -11 -5 -3 -10 -1 -10 4 0 6 5 11 10 11 6 0 10 -2 10 -4z
m2910 0 c0 -3 -4 -8 -10 -11 -5 -3 -10 -1 -10 4 0 6 5 11 10 11 6 0 10 -2 10
-4z m-2945 -16 c3 -5 1 -10 -4 -10 -6 0 -11 5 -11 10 0 6 2 10 4 10 3 0 8 -4
11 -10z m-155 -10 c0 -5 -4 -10 -10 -10 -5 0 -10 5 -10 10 0 6 5 10 10 10 6 0
10 -4 10 -10z m137 -19 c12 11 12 9 2 -14 -16 -35 -29 -34 -28 1 0 15 3 21 6
14 4 -10 8 -10 20 -1z m1473 -12 c0 -5 -4 -9 -10 -9 -5 0 -10 7 -10 16 0 8 5
12 10 9 6 -3 10 -10 10 -16z m-2640 -9 c0 -5 -2 -10 -4 -10 -3 0 -8 5 -11 10
-3 6 -1 10 4 10 6 0 11 -4 11 -10z m945 -38 c-3 -3 -5 0 -5 7 0 7 -4 10 -9 7
-5 -4 -7 4 -3 16 l5 22 9 -24 c5 -12 6 -25 3 -28z m146 -5 c-10 -9 -11 -8 -5
6 3 10 9 15 12 12 3 -3 0 -11 -7 -18z m1304 -16 c0 -22 -3 -38 -6 -35 -5 3 -5
60 0 72 4 9 6 -4 6 -37z m-1248 4 c-4 -8 -12 -15 -19 -14 -10 0 -10 2 0 6 6 2
12 12 12 21 0 8 3 13 6 9 4 -3 4 -13 1 -22z m-167 5 c0 -5 -4 -10 -10 -10 -5
0 -10 5 -10 10 0 6 5 10 10 10 6 0 10 -4 10 -10z m-1190 -24 c0 -3 -4 -8 -10
-11 -5 -3 -10 -1 -10 4 0 6 5 11 10 11 6 0 10 -2 10 -4z m1151 -36 c6 0 7 -5
3 -11 -8 -14 -24 8 -23 31 1 11 3 10 6 -2 2 -10 9 -18 14 -18z m2452 15 c4 -8
2 -17 -3 -20 -6 -4 -10 3 -10 14 0 25 6 27 13 6z m-2333 -32 c-12 -8 -24 -12
-27 -9 -4 3 -1 6 5 6 7 0 12 7 12 15 0 9 6 12 15 8 13 -5 12 -8 -5 -20z m2700
-10 c0 -20 -3 -24 -11 -16 -7 7 -9 19 -6 27 10 24 17 19 17 -11z m-3700 -7 c0
-3 -4 -8 -10 -11 -5 -3 -10 -1 -10 4 0 6 5 11 10 11 6 0 10 -2 10 -4z m960 -6
c0 -5 -4 -10 -10 -10 -5 0 -10 5 -10 10 0 6 5 10 10 10 6 0 10 -4 10 -10z
m2726 -30 c8 0 14 -10 14 -22 -1 -22 -1 -22 -14 -5 -18 24 -23 13 -21 -45 1
-26 -1 -45 -6 -42 -4 2 -6 11 -2 19 3 8 1 15 -4 15 -5 0 -18 7 -29 16 -18 15
-18 15 8 10 22 -5 28 -3 26 11 -2 31 3 69 9 56 2 -7 11 -13 19 -13z m-356 -31
c0 -5 -4 -9 -10 -9 -5 0 -10 7 -10 16 0 8 5 12 10 9 6 -3 10 -10 10 -16z
m-2330 -29 c0 -5 -2 -10 -4 -10 -2 0 -12 -3 -22 -7 -16 -6 -17 -5 -4 10 17 19
30 22 30 7z m2761 -43 l-5 -32 -6 30 c-7 35 -1 63 10 46 3 -6 4 -26 1 -44z
m-2703 -52 l1 -20 -9 20 c-5 11 -8 31 -8 45 l0 25 8 -25 c4 -14 8 -34 8 -45z
m1540 27 c2 -7 -1 -12 -7 -12 -6 0 -11 5 -11 11 0 5 -4 8 -9 5 -9 -6 -71 15
-71 25 0 11 94 -17 98 -29z m1029 -24 c-3 -8 -6 -5 -6 6 -1 11 2 17 5 13 3 -3
4 -12 1 -19z m30 0 c-3 -8 -6 -5 -6 6 -1 11 2 17 5 13 3 -3 4 -12 1 -19z m160
-45 c-3 -10 -5 -4 -5 12 0 17 2 24 5 18 2 -7 2 -21 0 -30z m-1160 5 c-3 -8 -6
-5 -6 6 -1 11 2 17 5 13 3 -3 4 -12 1 -19z m-27 -8 c0 -5 -2 -10 -4 -10 -3 0
-8 5 -11 10 -3 6 -1 10 4 10 6 0 11 -4 11 -10z m1284 -5 c3 -8 1 -15 -4 -15
-6 0 -10 7 -10 15 0 8 2 15 4 15 2 0 6 -7 10 -15z m-4235 -21 c-6 -8 -18 -14
-25 -14 -11 0 -10 5 4 18 19 21 39 18 21 -4z m1401 -25 c7 -11 9 -23 6 -26 -3
-3 -9 3 -13 13 -3 10 -11 22 -17 26 -8 5 -7 8 1 8 7 0 17 -9 23 -21z m-444
-25 c-4 -9 -9 -15 -11 -12 -3 3 -3 13 1 22 4 9 9 15 11 12 3 -3 3 -13 -1 -22z
m-197 -36 c1 -5 -3 -8 -9 -8 -5 0 -10 12 -9 28 0 24 1 25 9 7 5 -11 9 -23 9
-27z m1582 5 c-8 -15 -10 -15 -11 -2 0 17 10 32 18 25 2 -3 -1 -13 -7 -23z
m1154 -28 c2 -46 -11 -68 -25 -45 -4 7 -10 -1 -14 -22 -7 -29 -9 -31 -16 -13
-7 17 -9 17 -9 3 -1 -10 -8 -18 -16 -18 -8 0 -15 -5 -15 -11 0 -5 -4 -8 -9 -4
-6 3 -14 -3 -20 -12 -9 -16 -10 -16 -11 5 0 12 -4 22 -10 22 -5 0 -10 -8 -10
-18 0 -28 -65 -26 -79 2 -8 18 -10 18 -10 4 -1 -10 -5 -18 -11 -18 -13 0 -13
50 0 70 8 13 10 12 10 -2 0 -10 5 -18 11 -18 5 0 7 5 4 11 -4 6 1 17 11 24 27
20 36 18 24 -5 -6 -12 -7 -20 -1 -20 5 0 16 19 24 43 9 23 16 34 16 23 1 -12
6 -16 16 -12 10 4 15 -1 15 -14 0 -11 5 -20 10 -20 6 0 10 6 9 13 -1 6 -1 21
1 32 l1 20 8 -20 c5 -11 6 -26 3 -34 -3 -9 -1 -12 6 -7 7 4 13 24 14 44 l1 37
4 -33 c5 -40 23 -32 24 11 1 24 3 26 6 9 5 -27 23 -19 23 10 0 41 13 8 15 -37z
m-430 35 c3 -5 1 -10 -4 -10 -6 0 -11 5 -11 10 0 6 2 10 4 10 3 0 8 -4 11 -10z
m-2136 -32 c0 -28 -2 -30 -9 -13 -12 28 -12 45 0 45 6 0 10 -15 9 -32z m23 10
c-7 -7 -12 -8 -12 -2 0 14 12 26 19 19 2 -3 -1 -11 -7 -17z m2178 2 c0 -11 -2
-20 -4 -20 -2 0 -6 9 -9 20 -3 11 -1 20 4 20 5 0 9 -9 9 -20z m-2350 -45 l0
-54 -25 23 c-14 13 -25 28 -25 34 0 10 38 52 47 52 2 0 3 -25 3 -55z m1870 22
c0 -5 -4 -5 -10 -2 -5 3 -10 14 -10 23 0 15 2 15 10 2 5 -8 10 -19 10 -23z
m508 2 c-3 -8 -7 -3 -11 10 -4 17 -3 21 5 13 5 -5 8 -16 6 -23z m-2338 1 c0
-5 -7 -10 -15 -10 -8 0 -15 5 -15 10 0 6 7 10 15 10 8 0 15 -4 15 -10z m1520
0 c0 -5 -5 -10 -11 -10 -5 0 -7 5 -4 10 3 6 8 10 11 10 2 0 4 -4 4 -10z m37
-12 c-3 -8 -6 -5 -6 6 -1 11 2 17 5 13 3 -3 4 -12 1 -19z m1946 -1 c3 -8 1
-20 -4 -28 -6 -10 -9 -7 -9 14 0 29 5 35 13 14z m-3423 -35 c0 -6 -9 -8 -20
-5 -22 6 -22 6 -14 27 5 13 8 13 20 1 8 -7 14 -18 14 -23z m1497 16 c-3 -8 -6
-5 -6 6 -1 11 2 17 5 13 3 -3 4 -12 1 -19z m731 -8 c-1 -16 -6 -30 -10 -30 -9
0 -10 7 -2 38 9 31 15 27 12 -8z m-380 0 c12 -19 11 -20 -8 -8 -11 7 -20 16
-20 20 0 15 15 8 28 -12z m470 -31 c0 -47 -15 -52 -21 -6 -4 30 -4 30 -6 -8
-3 -36 -4 -37 -11 -15 -15 48 -12 65 14 66 22 2 25 -2 24 -37z m922 31 c0 -5
-5 -10 -11 -10 -5 0 -7 5 -4 10 3 6 8 10 11 10 2 0 4 -4 4 -10z m215 -10 c3
-5 1 -10 -4 -10 -6 0 -11 5 -11 10 0 6 2 10 4 10 3 0 8 -4 11 -10z m-3775 -32
c0 -16 -3 -19 -11 -11 -6 6 -8 16 -5 22 11 17 16 13 16 -11z m1791 -21 c-8 -8
-11 -3 -11 19 1 25 2 27 11 11 8 -14 8 -22 0 -30z m-64 11 c-3 -8 -6 -5 -6 6
-1 11 2 17 5 13 3 -3 4 -12 1 -19z m433 -8 c0 -5 -5 -10 -11 -10 -5 0 -7 5 -4
10 3 6 8 10 11 10 2 0 4 -4 4 -10z m-2850 -69 c-1 -24 -2 -24 -14 -8 -7 9 -18
17 -25 17 -12 0 -15 13 -5 22 3 3 14 4 25 1 13 -4 19 -14 19 -32z m2378 10
c-13 -15 -25 -27 -27 -25 -4 4 39 54 47 54 2 0 -7 -13 -20 -29z m399 -3 c-3
-8 -6 -5 -6 6 -1 11 2 17 5 13 3 -3 4 -12 1 -19z m103 -24 c0 -8 -4 -12 -10
-9 -5 3 -10 13 -10 21 0 8 5 12 10 9 6 -3 10 -13 10 -21z m-2844 -31 c-10 -10
-19 5 -10 18 6 11 8 11 12 0 2 -7 1 -15 -2 -18z m2368 11 c3 -8 2 -12 -4 -9
-6 3 -10 10 -10 16 0 14 7 11 14 -7z m-2511 -11 c-7 -3 -13 -14 -13 -25 0 -16
-3 -18 -14 -9 -10 8 -16 9 -21 1 -8 -13 -25 -13 -25 0 0 21 26 38 55 37 17 0
24 -2 18 -4z m3432 -13 c3 -5 1 -10 -4 -10 -6 0 -11 5 -11 10 0 6 2 10 4 10 3
0 8 -4 11 -10z m35 0 c0 -5 -4 -10 -10 -10 -5 0 -10 5 -10 10 0 6 5 10 10 10
6 0 10 -4 10 -10z m-3425 -21 c10 -29 3 -31 -18 -3 -15 20 -15 24 -3 24 8 0
18 -9 21 -21z m3310 11 c3 -5 1 -10 -4 -10 -6 0 -11 5 -11 10 0 6 2 10 4 10 3
0 8 -4 11 -10z m166 -43 c-8 -8 -11 -4 -11 14 0 33 14 47 18 19 2 -12 -1 -27
-7 -33z m-117 -4 c3 -23 1 -45 -4 -48 -6 -4 -10 15 -10 46 0 61 5 62 14 2z
m-209 17 c3 -5 1 -10 -4 -10 -6 0 -11 5 -11 10 0 6 2 10 4 10 3 0 8 -4 11 -10z
m-1153 -9 c-10 -6 -9 -10 7 -14 12 -3 21 -1 21 4 0 5 4 9 9 9 5 0 8 -11 7 -23
-1 -17 -6 -23 -18 -19 -12 3 -18 -1 -18 -12 0 -10 -4 -14 -10 -11 -6 4 -10 -5
-10 -19 0 -17 -6 -26 -16 -26 -9 0 -12 5 -8 12 4 7 3 8 -5 4 -6 -4 -9 -16 -6
-26 5 -14 1 -16 -21 -12 -16 3 -29 -1 -35 -9 -6 -10 -9 -7 -9 11 -1 23 -2 24
-14 8 -7 -10 -23 -18 -35 -18 -12 0 -19 -4 -16 -10 6 -9 -27 -15 -67 -12 -10
1 -18 -5 -18 -14 0 -10 -5 -12 -12 -7 -31 19 -54 1 -42 -31 4 -9 -6 -20 -25
-30 -38 -20 -51 -20 -51 0 0 8 -4 12 -10 9 -5 -3 -10 -16 -10 -28 0 -16 -3
-18 -9 -9 -11 18 -21 -7 -21 -49 0 -28 -2 -29 -22 -18 -19 9 -21 9 -10 -2 14
-15 16 -39 3 -39 -5 0 -12 8 -14 18 -3 10 -5 6 -6 -10 0 -16 -5 -28 -11 -28
-5 0 -10 4 -10 8 0 4 -16 8 -35 9 -19 1 -35 -2 -35 -7 0 -4 -11 -7 -25 -7 -14
0 -25 5 -25 11 0 6 -4 5 -9 -2 -6 -10 -10 -4 -15 21 l-7 35 -24 -24 c-14 -14
-29 -23 -34 -19 -5 3 -11 -1 -14 -7 -2 -7 -8 -9 -13 -5 -5 5 -1 15 10 23 15
10 16 14 5 15 -10 0 -10 2 -1 6 6 2 12 18 12 34 0 40 18 37 23 -3 3 -25 4 -22
5 15 1 26 7 47 12 47 6 0 10 -8 11 -17 0 -11 3 -13 6 -5 2 6 11 12 19 12 8 0
14 5 14 11 0 6 7 9 15 5 11 -4 15 2 15 25 0 18 5 29 13 28 24 -3 38 1 33 9 -3
5 13 7 34 5 31 -3 40 -1 40 12 0 8 7 15 15 15 8 0 15 5 15 11 0 6 7 9 15 5 10
-3 15 1 16 12 1 16 2 16 6 0 5 -20 23 -25 23 -7 0 6 7 9 15 5 9 -3 15 0 15 10
0 8 7 17 15 20 8 4 15 12 15 20 0 8 5 14 10 14 6 0 10 -6 10 -13 0 -9 11 -12
35 -9 19 2 35 8 35 13 0 5 13 9 29 9 16 0 31 4 33 9 4 10 143 58 173 60 15 0
16 -2 7 -8z m1268 -12 c0 -11 -4 -17 -10 -14 -5 3 -10 1 -10 -4 0 -6 -5 -11
-11 -11 -6 0 -9 8 -7 18 2 9 10 16 16 15 7 -2 12 2 12 7 0 6 2 10 5 10 3 0 5
-9 5 -21z m70 11 c0 -5 -4 -10 -10 -10 -5 0 -10 5 -10 10 0 6 5 10 10 10 6 0
10 -4 10 -10z m119 -16 c3 -16 1 -17 -13 -5 -19 16 -21 34 -3 29 6 -3 14 -13
16 -24z m-278 -31 c-9 -15 -10 -12 -10 17 0 29 1 32 10 18 7 -12 7 -24 0 -35z
m31 10 c-3 -16 -7 -22 -10 -15 -4 13 4 42 11 42 2 0 2 -12 -1 -27z m185 -33
c0 -22 -4 -40 -8 -40 -5 0 -9 21 -9 46 0 25 4 43 9 40 4 -3 8 -24 8 -46z m30
-17 c2 -31 0 -54 -3 -51 -9 10 -16 108 -7 108 4 0 9 -25 10 -57z m1560 35 c-3
-8 -6 -5 -6 6 -1 11 2 17 5 13 3 -3 4 -12 1 -19z m-1707 2 c0 -5 -5 -10 -11
-10 -5 0 -7 5 -4 10 3 6 8 10 11 10 2 0 4 -4 4 -10z m-275 -30 c3 -5 1 -10 -4
-10 -6 0 -11 5 -11 10 0 6 2 10 4 10 3 0 8 -4 11 -10z m665 -6 c0 -8 -5 -12
-10 -9 -6 4 -8 11 -5 16 9 14 15 11 15 -7z m-2195 -15 c-4 -5 -12 -9 -18 -8
-9 0 -8 2 1 6 6 2 9 10 6 15 -4 7 -2 8 5 4 6 -4 9 -12 6 -17z m82 -1 c-3 -8
-6 -5 -6 6 -1 11 2 17 5 13 3 -3 4 -12 1 -19z m1770 0 c-3 -8 -6 -5 -6 6 -1
11 2 17 5 13 3 -3 4 -12 1 -19z m33 -32 c-7 -7 -10 1 -9 25 0 32 1 33 10 10 6
-16 6 -28 -1 -35z m-1911 -3 c1 -7 -3 -13 -9 -13 -5 0 -10 15 -9 33 0 27 2 29
9 12 5 -11 9 -26 9 -32z m-29 -29 c0 -8 -4 -14 -10 -14 -5 0 -10 5 -10 11 0 5
-5 7 -10 4 -6 -4 -8 -11 -5 -16 4 -5 1 -9 -4 -9 -6 0 -11 20 -11 46 l0 45 25
-27 c14 -15 25 -33 25 -40z m1860 46 c0 -5 -4 -10 -10 -10 -5 0 -10 5 -10 10
0 6 5 10 10 10 6 0 10 -4 10 -10z m-1950 -24 c0 -19 -5 -24 -20 -23 -20 1 -29
17 -10 17 6 0 10 7 10 15 0 8 5 15 10 15 6 0 10 -11 10 -24z m29 12 c0 -7 -4
-22 -9 -33 -7 -17 -9 -15 -9 13 -1 17 4 32 9 32 6 0 10 -6 9 -12z m2307 -25
c-11 -11 -19 6 -11 24 8 17 8 17 12 0 3 -10 2 -21 -1 -24z m-362 12 c3 -8 1
-15 -4 -15 -6 0 -10 7 -10 15 0 8 2 15 4 15 2 0 6 -7 10 -15z m216 -16 c0 -5
-4 -9 -10 -9 -5 0 -10 7 -10 16 0 8 5 12 10 9 6 -3 10 -10 10 -16z m-157 -9
c-3 -12 -8 -19 -11 -16 -5 6 5 36 12 36 2 0 2 -9 -1 -20z m214 -17 c-3 -10 -5
-4 -5 12 0 17 2 24 5 18 2 -7 2 -21 0 -30z m120 5 c-3 -8 -6 -5 -6 6 -1 11 2
17 5 13 3 -3 4 -12 1 -19z m-910 -20 c-3 -8 -6 -5 -6 6 -1 11 2 17 5 13 3 -3
4 -12 1 -19z m373 -14 c0 -35 -17 -30 -18 6 0 17 4 28 9 25 5 -4 9 -17 9 -31z
m-208 -34 c5 0 8 7 5 15 -4 8 -2 17 3 20 6 4 10 2 10 -4 0 -6 7 -8 15 -5 10 4
15 0 15 -15 0 -14 -5 -19 -15 -15 -15 6 -21 -7 -8 -19 10 -11 43 24 43 46 0
11 3 17 7 14 3 -4 12 -2 20 4 10 9 13 7 13 -10 0 -11 -4 -21 -8 -21 -5 0 -9
-7 -9 -14 0 -11 5 -12 18 -6 13 8 18 5 23 -13 9 -33 8 -34 -20 -31 -19 2 -28
-3 -31 -17 -5 -18 -6 -19 -19 -2 -13 17 -13 17 -14 -2 0 -17 -2 -17 -10 -5 -7
10 -12 12 -17 4 -9 -12 -71 -24 -90 -17 -7 3 -13 16 -13 29 0 13 -2 24 -4 24
-2 0 -11 2 -18 5 -11 4 -13 -3 -10 -29 4 -32 1 -36 -24 -43 -16 -4 -35 -6 -41
-5 -7 2 -13 -2 -13 -8 0 -5 -7 -10 -15 -10 -8 0 -15 -8 -16 -17 0 -11 -3 -13
-6 -5 -5 13 -39 17 -47 4 -3 -4 -21 -6 -40 -4 -29 3 -37 9 -43 31 -3 14 -12
32 -20 39 -11 11 -13 10 -13 -5 0 -10 -9 -26 -20 -36 -25 -21 -30 -21 -30 -2
0 18 -16 20 -23 3 -4 -8 -6 -7 -6 4 -1 10 -13 19 -31 23 -19 4 -30 13 -30 23
-1 15 -3 14 -16 -3 -14 -19 -15 -17 -12 24 2 37 7 45 26 47 19 3 22 -1 23 -34
1 -36 2 -36 8 -7 l7 30 8 -25 c8 -24 9 -24 16 10 4 19 8 29 9 23 0 -7 6 -13
12 -13 5 0 8 3 5 8 -2 4 3 16 11 27 15 20 15 20 9 0 -3 -11 -1 -27 4 -35 8
-12 10 -11 10 8 0 12 5 22 11 22 5 0 8 -4 4 -9 -3 -5 -1 -12 5 -16 6 -3 10 4
11 17 1 14 4 8 10 -17 11 -46 27 -59 50 -39 8 8 19 11 22 7 4 -3 7 3 7 13 0
15 7 20 28 19 15 0 30 4 34 10 4 5 8 1 8 -11 0 -17 6 -20 35 -20 24 1 37 6 41
18 4 14 10 15 30 8 34 -13 36 -13 33 8 -3 30 1 35 16 22 12 -10 15 -9 16 6 0
15 3 14 12 -6 l11 -25 5 30 5 30 4 -27 c2 -16 8 -28 14 -28z m135 18 c-3 -7
-5 -2 -5 12 0 14 2 19 5 13 2 -7 2 -19 0 -25z m30 0 c-3 -7 -5 -2 -5 12 0 14
2 19 5 13 2 -7 2 -19 0 -25z m-414 5 c-7 -2 -21 -2 -30 0 -10 3 -4 5 12 5 17
0 24 -2 18 -5z m-413 -33 c0 -5 -4 -10 -10 -10 -5 0 -10 5 -10 10 0 6 5 10 10
10 6 0 10 -4 10 -10z m895 -30 c-3 -6 -15 -10 -26 -10 -13 0 -19 7 -18 23 0
12 3 16 6 10 7 -19 23 -16 23 5 1 16 1 16 11 -1 5 -9 7 -22 4 -27z m-555 21
c0 -6 -4 -13 -10 -16 -5 -3 -10 1 -10 9 0 9 5 16 10 16 6 0 10 -4 10 -9z m636
-4 c8 3 14 0 14 -6 0 -6 3 -10 8 -8 4 1 7 -2 7 -8 0 -5 -4 -9 -9 -7 -5 2 -13
-3 -17 -10 -7 -10 -9 -9 -9 5 0 9 -5 16 -12 15 -6 -2 -14 6 -16 17 -3 16 -1
17 8 8 7 -6 19 -9 26 -6z m-46 -12 c0 -8 -4 -15 -10 -15 -5 0 -10 7 -10 15 0
8 5 15 10 15 6 0 10 -7 10 -15z m-2085 -15 c3 -5 -1 -10 -10 -10 -9 0 -13 5
-10 10 3 6 8 10 10 10 2 0 7 -4 10 -10z m2222 -22 c-3 -8 -6 -5 -6 6 -1 11 2
17 5 13 3 -3 4 -12 1 -19z m30 0 c-3 -8 -6 -5 -6 6 -1 11 2 17 5 13 3 -3 4
-12 1 -19z m-1377 -2 c0 -23 -16 -27 -17 -5 -1 10 2 19 8 19 5 0 9 -6 9 -14z
m1420 0 c0 -3 -4 -8 -10 -11 -5 -3 -10 -1 -10 4 0 6 5 11 10 11 6 0 10 -2 10
-4z m-2286 -22 c4 -9 1 -23 -5 -30 -9 -11 -7 -15 5 -20 9 -3 16 -10 16 -15 0
-18 -29 -21 -45 -6 -17 17 -21 52 -5 42 6 -3 10 1 10 10 0 9 -4 13 -10 10 -5
-3 -10 -2 -10 4 0 8 15 18 31 20 4 1 10 -6 13 -15z m2316 0 c0 -8 -5 -12 -10
-9 -6 4 -8 11 -5 16 9 14 15 11 15 -7z m-1059 -31 c-12 -20 -14 -14 -5 12 4 9
9 14 11 11 3 -2 0 -13 -6 -23z m1119 2 c0 -8 -4 -15 -10 -15 -5 0 -10 7 -10
15 0 8 5 15 10 15 6 0 10 -7 10 -15z m-2437 -20 c-7 -21 -13 -19 -13 6 0 11 4
18 10 14 5 -3 7 -12 3 -20z m2824 -7 c-3 -7 -5 -2 -5 12 0 14 2 19 5 13 2 -7
2 -19 0 -25z m-2577 13 c0 -6 -4 -13 -10 -16 -5 -3 -10 1 -10 9 0 9 5 16 10
16 6 0 10 -4 10 -9z m2130 -1 c0 -5 -5 -10 -11 -10 -5 0 -7 5 -4 10 3 6 8 10
11 10 2 0 4 -4 4 -10z m357 -22 c-3 -8 -6 -5 -6 6 -1 11 2 17 5 13 3 -3 4 -12
1 -19z m220 0 c-3 -8 -6 -5 -6 6 -1 11 2 17 5 13 3 -3 4 -12 1 -19z m-1600 6
c-3 -3 -12 -4 -19 -1 -8 3 -5 6 6 6 11 1 17 -2 13 -5z m-1327 -30 c0 -8 -5
-12 -10 -9 -6 4 -8 11 -5 16 9 14 15 11 15 -7z m114 -75 c-18 -6 -32 -6 -81 0
-6 0 -9 10 -6 22 5 16 12 20 32 16 32 -6 61 8 62 31 1 9 5 -1 8 -23 5 -35 3
-41 -15 -46z m46 56 c0 -8 -2 -15 -4 -15 -2 0 -6 7 -10 15 -3 8 -1 15 4 15 6
0 10 -7 10 -15z m1740 1 c0 -3 -4 -8 -10 -11 -5 -3 -10 -1 -10 4 0 6 5 11 10
11 6 0 10 -2 10 -4z m-1490 -30 c0 -2 -8 -10 -17 -17 -16 -13 -17 -12 -4 4 13
16 21 21 21 13z m-450 -31 c0 -8 -4 -15 -10 -15 -5 0 -7 7 -4 15 4 8 8 15 10
15 2 0 4 -7 4 -15z m3250 -81 c0 -8 -4 -12 -10 -9 -5 3 -10 13 -10 21 0 8 5
12 10 9 6 -3 10 -13 10 -21z m-3290 -34 c0 -31 -15 -30 -16 1 -1 15 3 26 7 23
5 -3 9 -14 9 -24z m81 2 c-15 -27 -14 -32 5 -32 8 0 12 -5 9 -11 -4 -6 -14 -8
-22 -5 -9 4 -17 -1 -20 -13 -6 -24 -44 -42 -59 -28 -16 17 7 59 28 53 12 -3
24 8 38 31 21 37 40 40 21 5z m1863 -21 c3 -4 -6 -6 -19 -3 -14 2 -25 6 -25 8
0 8 39 4 44 -5z m-5 -48 c9 -16 12 -16 21 -3 8 12 10 11 10 -7 0 -13 5 -23 10
-23 6 0 10 5 10 11 0 6 7 3 16 -5 9 -10 16 -36 17 -66 1 -34 6 -49 14 -46 19
8 25 -29 17 -114 -4 -50 -10 -77 -17 -73 -7 4 -8 -5 -3 -27 3 -19 3 -55 0 -81
-6 -45 -9 -49 -43 -60 -42 -14 -120 -15 -147 -2 -11 5 -71 9 -135 8 -98 -1
-116 2 -111 14 4 10 1 13 -9 9 -9 -4 -15 1 -17 11 0 9 -5 41 -10 71 -10 60 -7
74 14 66 10 -4 14 3 14 25 0 18 -4 28 -10 24 -15 -9 -12 6 10 52 12 24 31 63
43 89 12 25 28 48 35 51 6 3 12 10 12 17 0 14 41 41 58 38 6 -2 12 1 12 6 0
10 13 12 97 15 29 1 53 5 53 10 0 14 29 7 39 -10z m-1939 -43 c12 -8 9 -10
-13 -10 -16 0 -26 4 -22 10 8 12 16 12 35 0z m54 -15 c-4 -8 -11 -15 -16 -15
-6 0 -5 6 2 15 7 8 14 15 16 15 2 0 1 -7 -2 -15z m2250 3 c-5 -7 -2 -9 9 -5 8
3 21 -1 27 -8 8 -9 21 -13 36 -9 21 5 24 3 24 -20 0 -14 5 -26 11 -26 7 0 5
-10 -5 -25 -9 -13 -16 -34 -16 -45 0 -11 -8 -48 -17 -81 -15 -54 -23 -66 -68
-100 -29 -22 -57 -39 -64 -39 -6 0 -20 -5 -30 -12 -16 -10 -26 -8 -55 7 -40
22 -42 25 -23 44 10 12 9 13 -7 7 -17 -6 -17 -5 -5 11 8 9 9 14 2 10 -7 -4
-13 0 -15 10 -5 28 4 103 12 98 4 -3 10 8 13 23 6 31 38 72 56 72 7 0 11 8 10
18 -3 32 1 42 16 42 8 0 15 5 15 11 0 6 6 9 12 7 7 -3 24 1 38 9 31 16 33 16
24 1z m-1080 -25 c-5 -17 -5 -17 9 -1 10 13 16 15 25 6 9 -9 12 -9 12 1 0 7 5
9 12 5 18 -11 48 -12 48 -2 0 4 5 8 11 8 5 0 8 -4 5 -8 -3 -5 24 -8 59 -6 72
3 77 -1 84 -61 6 -61 5 -75 -4 -145 -4 -36 -8 -78 -7 -95 1 -16 2 -40 3 -53 2
-41 -56 -68 -83 -38 -11 12 -15 12 -29 0 -19 -17 -83 -8 -72 10 4 6 0 5 -9 -2
-12 -10 -17 -10 -20 -1 -2 7 -12 13 -21 15 -13 2 -16 -3 -11 -20 5 -21 3 -22
-58 -20 -35 1 -64 2 -65 3 -2 0 -6 0 -9 -1 -6 -3 -25 38 -25 52 0 3 -7 8 -14
13 -8 4 -12 14 -8 22 3 9 0 22 -6 29 -9 11 -9 15 1 19 10 3 9 9 -5 24 -15 17
-17 45 -7 73 1 3 2 12 1 21 -1 9 4 29 10 45 7 16 11 39 10 50 -2 17 5 23 31
29 18 4 47 7 63 6 l30 -1 -30 14 -30 14 43 0 c24 0 46 2 49 6 11 10 13 7 7
-11z m-279 -23 c-17 -7 -17 -9 -2 -9 9 -1 20 -1 25 -2 13 -1 22 -41 16 -74 -3
-19 -1 -35 5 -39 15 -9 14 -53 -1 -62 -7 -4 -8 -3 -4 4 4 7 2 12 -3 12 -14 0
-14 -27 -1 -35 6 -3 10 -12 10 -18 0 -7 -4 -6 -10 3 -11 18 -22 8 -24 -23 0
-14 -4 -23 -9 -20 -4 2 -19 -10 -34 -28 -24 -28 -28 -30 -34 -13 -7 18 -8 18
-8 -1 -1 -18 -9 -20 -64 -22 -67 -3 -104 13 -94 41 4 9 0 22 -8 30 -16 16 -20
56 -7 56 5 0 17 18 27 40 10 23 29 53 42 68 13 15 23 33 23 40 0 7 4 11 9 8 4
-3 26 3 47 12 77 36 89 41 104 41 9 0 8 -4 -5 -9z m-985 -21 c0 -5 -4 -9 -10
-9 -5 0 -10 7 -10 16 0 8 5 12 10 9 6 -3 10 -10 10 -16z m2487 -51 c-3 -8 -6
-5 -6 6 -1 11 2 17 5 13 3 -3 4 -12 1 -19z m128 -62 c19 5 23 2 24 -18 1 -23
7 -84 10 -103 1 -5 9 1 17 15 9 15 13 18 9 6 -3 -11 2 -27 11 -37 13 -15 14
-22 5 -33 -6 -7 -11 -31 -11 -52 2 -80 1 -100 -5 -140 -7 -50 -36 -79 -87 -88
-33 -6 -39 -4 -53 21 -9 15 -14 20 -11 11 3 -10 1 -18 -4 -18 -6 0 -10 11 -10
25 0 20 -6 25 -36 31 -32 6 -35 9 -30 33 l6 26 -15 -25 -16 -25 6 28 c4 21 3
27 -6 21 -8 -5 -10 -2 -6 8 3 9 2 33 -3 54 -5 21 -6 43 -2 48 7 11 8 17 10 50
1 12 7 16 17 12 10 -4 15 1 15 15 0 11 7 22 15 25 10 4 13 13 10 25 -4 12 1
23 14 31 12 7 21 18 21 25 0 7 7 13 15 13 8 0 15 7 15 15 0 11 5 12 26 5 14
-6 36 -7 49 -4z m-1908 -138 c-3 -8 -6 -5 -6 6 -1 11 2 17 5 13 3 -3 4 -12 1
-19z m1823 -442 c0 -3 -4 -8 -10 -11 -5 -3 -10 -1 -10 4 0 6 5 11 10 11 6 0
10 -2 10 -4z m-1112 -40 c-7 -8 -15 -12 -17 -11 -5 6 10 25 20 25 5 0 4 -6 -3
-14z m1246 -103 c-14 -41 -20 -49 -27 -37 -6 10 -5 20 1 26 6 6 8 17 5 25 -3
7 2 22 11 32 9 10 16 22 15 27 -1 5 0 18 1 29 2 11 5 4 7 -15 3 -19 -3 -58
-13 -87z m-177 75 c-3 -8 -6 -5 -6 6 -1 11 2 17 5 13 3 -3 4 -12 1 -19z m-927
-20 c0 -6 -6 -5 -15 2 -8 7 -15 14 -15 16 0 2 7 1 15 -2 8 -4 15 -11 15 -16z
m-146 -13 c3 -8 1 -15 -3 -15 -5 0 -11 7 -15 15 -3 8 -1 15 3 15 5 0 11 -7 15
-15z m56 -15 c62 -54 69 -62 63 -76 -3 -8 2 -17 11 -20 9 -3 16 -17 16 -30 0
-13 5 -24 11 -24 5 0 7 -5 3 -11 -3 -6 -2 -14 4 -18 13 -8 20 -66 7 -66 -5 0
-9 11 -7 23 2 13 -1 21 -6 18 -6 -3 -9 2 -8 12 0 9 -5 16 -12 14 -8 -1 -12 3
-9 10 2 7 -4 23 -14 36 -10 13 -16 29 -13 37 3 7 1 16 -5 20 -6 3 -11 1 -11
-4 0 -6 -4 -11 -10 -11 -5 0 -10 6 -10 13 0 6 -13 22 -29 35 -18 14 -28 32
-28 47 0 32 5 31 47 -5z m150 -12 c0 -12 -1 -19 -3 -17 -1 2 -9 12 -16 22 -12
14 -11 17 3 17 10 0 16 -8 16 -22z m850 -18 c0 -5 -2 -10 -4 -10 -3 0 -8 5
-11 10 -3 6 -1 10 4 10 6 0 11 -4 11 -10z m-42 -130 c-7 -10 -14 -18 -15 -16
-6 6 9 36 18 36 5 0 4 -9 -3 -20z m-19 -52 c-6 -63 1 -119 14 -112 6 4 9 4 5
-1 -4 -4 -3 -14 3 -22 7 -8 8 -13 1 -13 -19 0 -29 26 -36 91 -5 57 -2 79 11
79 2 0 3 -10 2 -22z m253 -93 c-5 -39 -18 -53 -35 -36 -8 8 -6 11 6 11 11 0
17 8 17 23 0 19 7 37 15 37 0 0 -1 -16 -3 -35z m-192 -39 c0 -3 -4 -8 -10 -11
-5 -3 -10 -1 -10 4 0 6 5 11 10 11 6 0 10 -2 10 -4z m-1423 -208 c-3 -7 -5 -2
-5 12 0 14 2 19 5 13 2 -7 2 -19 0 -25z m595 -329 c17 -9 19 -17 14 -57 -8
-59 -35 -179 -48 -212 -20 -50 -26 -55 -68 -63 -37 -8 -44 -6 -57 12 -11 17
-18 19 -33 11 -10 -6 -21 -7 -23 -3 -2 5 -5 71 -6 149 l-1 141 37 11 c36 11
74 17 136 20 16 1 37 -3 49 -9z m147 2 c9 -6 22 -6 34 1 14 7 26 6 43 -2 12
-7 30 -10 38 -7 16 6 18 3 18 -33 0 -62 -2 -72 -17 -66 -9 3 -15 0 -15 -10 0
-8 5 -12 10 -9 13 8 13 3 -2 -32 -6 -15 -12 -72 -12 -125 -1 -53 -4 -99 -8
-103 -15 -15 -64 6 -76 33 -7 15 -28 49 -48 77 l-35 49 2 101 c1 56 0 106 -4
112 -4 5 -4 13 0 17 9 9 56 7 72 -3z m-424 -108 c-3 -43 -6 -88 -6 -100 0 -12
-4 -25 -9 -28 -14 -8 -13 -42 1 -47 13 -4 -21 -90 -39 -102 -6 -4 -30 5 -52
19 -22 14 -44 24 -48 21 -23 -14 -31 17 -34 122 -2 91 -6 112 -18 113 -13 0
-13 1 0 6 8 4 29 17 46 30 18 13 48 25 68 26 19 2 39 6 42 10 4 4 18 7 32 7
24 0 24 0 17 -77z m719 51 c26 -9 54 -27 62 -39 19 -29 16 -141 -3 -138 -7 2
-12 0 -11 -5 1 -4 -2 -29 -7 -57 -6 -39 -10 -46 -16 -30 -6 17 -8 17 -8 3 -1
-11 -6 -15 -17 -11 -12 4 -14 0 -9 -19 8 -30 -16 -56 -33 -36 -22 27 -33 100
-26 169 5 58 4 68 -8 64 -10 -4 -15 4 -16 31 -2 21 -5 41 -8 46 -8 13 16 38
35 38 10 0 39 -7 65 -16z m-1204 -40 c17 -4 33 -11 37 -17 3 -5 1 -7 -5 -3 -6
3 -13 -6 -17 -25 -4 -17 -13 -33 -21 -36 -9 -3 -12 -13 -9 -23 3 -10 2 -21 -3
-24 -5 -3 -8 10 -6 29 1 19 -2 35 -7 35 -5 0 -9 -6 -10 -12 -2 -29 -8 -51 -17
-57 -5 -3 -8 -14 -6 -23 1 -10 -4 -18 -11 -18 -7 0 -15 -9 -18 -20 -5 -19 -6
-19 -38 -3 -18 9 -28 18 -21 21 10 3 10 7 0 20 -11 14 -10 15 6 9 13 -5 17 -3
13 7 -4 9 -1 13 6 10 9 -3 12 11 9 53 -1 31 -5 59 -8 62 -2 3 6 11 18 18 22
12 34 12 108 -3z m198 0 c12 -8 22 -25 22 -37 0 -16 3 -19 9 -8 6 9 10 -1 12
-32 6 -65 -4 -167 -16 -170 -5 -1 -9 -7 -9 -13 2 -15 -25 -12 -55 5 -39 22
-48 34 -43 55 4 15 1 18 -11 13 -13 -5 -18 2 -23 29 -8 41 2 112 18 132 9 10
8 16 -2 22 -9 6 -1 10 26 13 21 2 41 4 44 5 3 1 16 -5 28 -14z m-335 -44 c3
-11 1 -18 -4 -14 -5 3 -9 12 -9 20 0 20 7 17 13 -6z m-85 -6 c14 -4 21 -12 18
-20 -3 -8 -1 -14 4 -14 6 0 10 -4 10 -10 0 -19 -29 -10 -32 10 -5 31 -21 27
-37 -9 -17 -35 -23 -37 -45 -15 -21 20 -20 33 2 40 9 3 24 9 32 14 19 11 20
11 48 4z m1917 -4 c3 -5 0 -10 -7 -11 -7 0 -24 -2 -37 -3 -22 -3 -23 -2 -6 11
22 16 41 17 50 3z m60 0 c3 -5 -3 -10 -14 -10 -12 0 -21 5 -21 10 0 6 6 10 14
10 8 0 18 -4 21 -10z m-145 -16 c0 -8 -4 -12 -10 -9 -5 3 -10 10 -10 16 0 5 5
9 10 9 6 0 10 -7 10 -16z m190 -4 c0 -5 -2 -10 -4 -10 -3 0 -8 5 -11 10 -3 6
-1 10 4 10 6 0 11 -4 11 -10z m-355 -44 c19 -25 25 -45 24 -73 -1 -21 2 -47 6
-58 5 -16 5 -17 -4 -5 -8 11 -11 3 -11 -37 0 -29 -4 -53 -9 -53 -5 0 -13 -9
-16 -21 -4 -12 -13 -18 -20 -15 -8 3 -16 0 -19 -7 -3 -8 -7 -9 -13 -2 -4 6
-20 16 -36 23 -26 11 -27 13 -25 89 1 54 6 84 17 97 15 18 15 19 -1 13 -12 -4
-16 -1 -15 14 1 10 5 19 10 19 5 0 7 7 3 15 -3 9 1 16 9 16 28 3 33 4 41 12
15 15 34 6 59 -27z m341 9 l29 -15 -30 -2 c-16 0 -38 0 -49 1 -10 0 -24 -2
-30 -7 -16 -11 -81 -8 -78 3 1 6 21 10 45 10 23 1 51 6 62 13 11 6 21 12 21
12 1 0 15 -7 30 -15z m-138 -110 c21 -15 21 -17 6 -40 -18 -27 -78 -44 -103
-28 -18 12 -33 61 -20 69 5 3 9 0 9 -6 0 -7 9 -5 22 4 28 20 58 20 86 1z m87
-33 c-8 -8 -25 10 -19 20 4 6 9 5 15 -3 4 -7 6 -15 4 -17z m-1468 -454 c-3 -8
-6 -5 -6 6 -1 11 2 17 5 13 3 -3 4 -12 1 -19z"/>
<path d="M2550 5634 c0 -8 5 -12 10 -9 6 3 10 10 10 16 0 5 -4 9 -10 9 -5 0
-10 -7 -10 -16z"/>
<path d="M2240 5479 c0 -6 6 -17 14 -25 8 -7 16 -19 19 -26 8 -25 17 -1 11 30
-5 22 -12 32 -25 32 -11 0 -19 -5 -19 -11z"/>
<path d="M2331 5454 c0 -11 3 -14 6 -6 3 7 2 16 -1 19 -3 4 -6 -2 -5 -13z"/>
<path d="M2246 5431 c-4 -7 -5 -15 -2 -18 9 -9 19 4 14 18 -4 11 -6 11 -12 0z"/>
<path d="M2460 5340 c0 -5 5 -10 11 -10 5 0 7 5 4 10 -3 6 -8 10 -11 10 -2 0
-4 -4 -4 -10z"/>
<path d="M2487 5123 c-3 -5 -2 -15 2 -22 7 -10 10 -10 16 -1 4 6 3 16 -3 22
-5 5 -12 6 -15 1z"/>
<path d="M2760 5585 c0 -19 5 -25 18 -23 12 2 18 -5 20 -24 2 -14 10 -29 19
-32 23 -9 31 4 10 18 -9 7 -17 19 -17 27 0 7 13 -2 30 -21 22 -26 29 -30 30
-17 0 9 -7 17 -15 17 -8 0 -15 6 -15 14 0 8 -9 18 -20 21 -11 3 -20 11 -20 16
0 5 -6 8 -12 7 -7 -2 -12 3 -10 10 1 6 -2 12 -8 12 -5 0 -10 -11 -10 -25z"/>
<path d="M2750 5506 c0 -8 4 -17 9 -20 5 -3 9 -22 9 -42 0 -19 3 -38 6 -41 8
-8 8 81 0 101 -8 20 -24 21 -24 2z"/>
<path d="M4945 5470 c3 -5 8 -10 11 -10 2 0 4 5 4 10 0 6 -5 10 -11 10 -5 0
-7 -4 -4 -10z"/>
<path d="M4460 5361 c0 -6 4 -13 10 -16 6 -3 7 1 4 9 -7 18 -14 21 -14 7z"/>
<path d="M4150 5192 c0 -11 4 -23 8 -26 10 -6 9 30 -1 40 -4 4 -7 -2 -7 -14z"/>
<path d="M4120 5168 c0 -25 3 -29 10 -18 13 20 13 50 0 50 -5 0 -10 -15 -10
-32z"/>
<path d="M5035 5460 c-3 -5 -1 -10 4 -10 6 0 11 5 11 10 0 6 -2 10 -4 10 -3 0
-8 -4 -11 -10z"/>
<path d="M1780 5296 c0 -8 -3 -16 -7 -19 -5 -2 -2 -2 5 0 8 1 23 3 34 3 17 0
18 3 8 15 -16 19 -40 19 -40 1z"/>
<path d="M2401 5224 c0 -11 3 -14 6 -6 3 7 2 16 -1 19 -3 4 -6 -2 -5 -13z"/>
<path d="M2360 5213 c0 -13 5 -23 10 -23 13 0 13 11 0 30 -8 12 -10 11 -10 -7z"/>
<path d="M4570 4951 c0 -6 5 -13 10 -16 6 -3 10 1 10 9 0 9 -4 16 -10 16 -5 0
-10 -4 -10 -9z"/>
<path d="M4671 4864 c0 -11 3 -14 6 -6 3 7 2 16 -1 19 -3 4 -6 -2 -5 -13z"/>
<path d="M2255 4500 c3 -5 8 -10 11 -10 2 0 4 5 4 10 0 6 -5 10 -11 10 -5 0
-7 -4 -4 -10z"/>
<path d="M1876 4311 c-4 -7 -5 -15 -2 -18 9 -9 19 4 14 18 -4 11 -6 11 -12 0z"/>
<path d="M1823 4294 c-3 -8 -12 -13 -19 -10 -17 7 -25 -6 -14 -23 5 -9 17 -11
34 -7 19 5 26 13 26 31 0 28 -17 34 -27 9z"/>
<path d="M1970 4272 c-16 -15 -33 -22 -48 -19 -17 3 -22 1 -18 -10 6 -16 -25
-51 -41 -46 -14 5 -23 -20 -16 -47 3 -13 11 -19 19 -16 8 3 14 1 14 -4 0 -5
12 2 26 17 14 14 23 32 20 39 -4 9 4 18 20 24 14 6 23 13 20 18 -2 4 2 16 10
27 13 17 16 18 24 5 9 -13 10 -13 10 0 0 31 -15 35 -40 12z m-60 -98 c0 -8 -4
-12 -10 -9 -5 3 -10 10 -10 16 0 5 5 9 10 9 6 0 10 -7 10 -16z"/>
<path d="M2027 4294 c-8 -8 1 -24 14 -24 5 0 9 7 9 15 0 15 -12 20 -23 9z"/>
<path d="M1815 4107 c-5 -20 -11 -25 -18 -18 -16 16 -37 13 -37 -5 0 -8 5 -12
10 -9 6 4 17 1 25 -5 8 -7 15 -9 15 -4 1 5 8 -4 16 -19 22 -40 24 -31 9 33
-12 51 -13 53 -20 27z"/>
<path d="M1760 4035 c0 -9 6 -12 15 -9 8 4 15 7 15 9 0 2 -7 5 -15 9 -9 3 -15
0 -15 -9z"/>
<path d="M1790 3998 c0 -19 2 -20 10 -8 13 19 13 30 0 30 -5 0 -10 -10 -10
-22z"/>
<path d="M1150 3970 c0 -6 7 -10 15 -10 8 0 15 2 15 4 0 2 -7 6 -15 10 -8 3
-15 1 -15 -4z"/>
<path d="M1810 3930 c0 -5 5 -10 10 -10 6 0 10 5 10 10 0 6 -4 10 -10 10 -5 0
-10 -4 -10 -10z"/>
<path d="M956 3774 c-4 -9 -4 -19 -1 -22 2 -3 7 3 11 12 4 9 4 19 1 22 -2 3
-7 -3 -11 -12z"/>
<path d="M1025 3730 c-3 -5 -1 -10 4 -10 6 0 11 5 11 10 0 6 -2 10 -4 10 -3 0
-8 -4 -11 -10z"/>
<path d="M965 3680 c3 -5 11 -10 16 -10 6 0 7 5 4 10 -3 6 -11 10 -16 10 -6 0
-7 -4 -4 -10z"/>
<path d="M1120 3681 c0 -6 6 -10 13 -8 6 1 13 -7 13 -18 1 -11 2 -28 3 -37 1
-10 7 -18 15 -18 8 0 17 -12 19 -27 4 -26 4 -26 6 5 1 22 -4 32 -13 32 -10 0
-16 13 -18 37 -2 27 -8 39 -20 41 -10 2 -18 -1 -18 -7z"/>
<path d="M1031 3664 c0 -11 3 -14 6 -6 3 7 2 16 -1 19 -3 4 -6 -2 -5 -13z"/>
<path d="M1290 3660 c0 -5 5 -10 10 -10 6 0 10 5 10 10 0 6 -4 10 -10 10 -5 0
-10 -4 -10 -10z"/>
<path d="M1180 3652 c0 -10 22 -32 32 -32 5 0 3 9 -4 20 -13 20 -28 27 -28 12z"/>
<path d="M1230 3650 c0 -5 5 -10 10 -10 6 0 10 5 10 10 0 6 -4 10 -10 10 -5 0
-10 -4 -10 -10z"/>
<path d="M966 3592 c-2 -4 -1 -21 1 -38 l5 -31 25 23 c14 13 22 27 19 32 -7
12 -45 22 -50 14z"/>
<path d="M1087 3594 c-8 -8 1 -24 14 -24 5 0 9 7 9 15 0 15 -12 20 -23 9z"/>
<path d="M1050 3575 c0 -8 -4 -15 -10 -15 -5 0 -10 -10 -9 -22 0 -13 3 -17 6
-10 2 6 9 12 14 12 6 0 7 -4 4 -10 -3 -5 0 -10 8 -10 20 0 29 27 12 34 -8 3
-12 12 -9 21 3 8 1 15 -5 15 -6 0 -11 -7 -11 -15z"/>
<path d="M1141 3585 c1 -19 18 -51 18 -35 0 8 -4 22 -9 30 -5 8 -9 11 -9 5z"/>
<path d="M1200 3566 c0 -2 7 -6 15 -10 8 -3 15 -1 15 4 0 6 -7 10 -15 10 -8 0
-15 -2 -15 -4z"/>
<path d="M1100 3551 c0 -5 7 -11 15 -15 8 -3 15 -1 15 3 0 5 -7 11 -15 15 -8
3 -15 1 -15 -3z"/>
<path d="M708 4443 c12 -2 30 -2 40 0 9 3 -1 5 -23 4 -22 0 -30 -2 -17 -4z"/>
<path d="M1211 4404 c0 -11 3 -14 6 -6 3 7 2 16 -1 19 -3 4 -6 -2 -5 -13z"/>
<path d="M4310 3791 c0 -5 6 -12 13 -14 6 -3 3 -6 -8 -6 -16 -1 -17 -3 -5 -10
18 -12 30 -5 30 20 0 10 -7 19 -15 19 -8 0 -15 -4 -15 -9z"/>
<path d="M2640 3450 c0 -5 7 -10 15 -10 8 0 15 5 15 10 0 6 -7 10 -15 10 -8 0
-15 -4 -15 -10z"/>
<path d="M2431 3344 c0 -11 3 -14 6 -6 3 7 2 16 -1 19 -3 4 -6 -2 -5 -13z"/>
<path d="M2312 3315 c0 -16 2 -22 5 -12 2 9 2 23 0 30 -3 6 -5 -1 -5 -18z"/>
<path d="M2333 3254 c-3 -8 -1 -20 6 -27 8 -8 11 -4 11 16 0 30 -7 35 -17 11z"/>
<path d="M2311 3234 c0 -11 3 -14 6 -6 3 7 2 16 -1 19 -3 4 -6 -2 -5 -13z"/>
<path d="M3470 3234 c0 -8 5 -12 10 -9 6 4 8 11 5 16 -9 14 -15 11 -15 -7z"/>
<path d="M3851 2643 c1 -21 5 -51 9 -68 6 -23 8 -15 9 38 1 39 -3 67 -9 67 -5
0 -9 -17 -9 -37z"/>
<path d="M4201 2644 c0 -11 3 -14 6 -6 3 7 2 16 -1 19 -3 4 -6 -2 -5 -13z"/>
<path d="M4434 2449 c-3 -6 -1 -16 5 -22 8 -8 11 -5 11 11 0 24 -5 28 -16 11z"/>
<path d="M2891 774 c0 -11 3 -14 6 -6 3 7 2 16 -1 19 -3 4 -6 -2 -5 -13z"/>
<path d="M4091 784 c0 -11 3 -14 6 -6 3 7 2 16 -1 19 -3 4 -6 -2 -5 -13z"/>
<path d="M4748 5993 c-10 -2 -18 -12 -18 -21 0 -12 -3 -13 -12 -4 -17 17 -24
15 -25 -8 -1 -16 3 -18 30 -14 22 4 28 3 19 -4 -11 -7 -9 -10 7 -15 12 -3 21
-1 21 4 0 20 19 7 28 -18 l10 -28 1 25 c1 17 4 21 10 12 4 -7 6 -24 3 -38 -2
-13 0 -24 6 -24 6 0 8 9 5 20 -3 11 0 20 6 20 6 0 11 -11 11 -25 0 -18 4 -23
15 -19 11 5 15 -1 16 -22 1 -24 2 -25 6 -6 5 28 23 29 23 1 0 -22 16 -42 43
-52 9 -3 17 -14 17 -22 0 -12 6 -15 20 -10 16 5 20 2 20 -15 0 -12 4 -19 9
-15 5 3 11 -5 13 -17 2 -14 9 -23 20 -22 10 1 14 -4 11 -12 -3 -8 1 -14 11
-14 9 0 19 -7 23 -16 5 -13 7 -13 14 -2 7 10 9 9 9 -4 0 -19 35 -42 50 -33 6
3 10 1 10 -5 0 -7 7 -10 15 -6 11 4 15 -2 15 -22 0 -15 -4 -22 -8 -17 -4 6
-47 23 -97 39 -49 15 -100 38 -112 49 -13 11 -23 17 -23 13 0 -5 -7 -3 -15 4
-8 7 -15 10 -15 6 0 -7 -203 98 -241 125 -15 10 -44 21 -65 25 -20 3 -47 10
-60 14 -12 5 -57 10 -100 11 -65 2 -80 -1 -82 -13 -2 -9 2 -20 9 -24 8 -4 9
-3 5 4 -4 7 -2 12 3 12 6 0 11 -6 11 -14 0 -8 7 -16 15 -20 8 -3 15 -12 15
-20 0 -8 5 -18 11 -22 8 -4 9 1 4 17 -5 16 -4 21 3 14 6 -5 12 -21 15 -35 4
-22 4 -21 6 6 1 27 5 32 26 30 14 0 27 -7 30 -13 2 -7 12 -13 21 -13 10 0 14
-5 11 -15 -4 -8 -2 -17 3 -20 6 -4 10 4 10 16 0 18 2 19 15 9 8 -7 15 -10 15
-7 0 17 46 -14 51 -34 7 -24 7 -24 8 -1 1 12 6 22 12 22 6 0 9 -9 6 -20 -3
-11 -1 -22 3 -25 5 -3 11 3 13 12 4 17 5 17 6 0 1 -14 6 -17 21 -12 12 4 20 2
20 -5 0 -7 7 -9 17 -6 11 5 23 -1 35 -16 15 -19 18 -20 18 -5 0 9 5 17 10 17
6 0 10 -6 10 -14 0 -8 13 -17 29 -21 16 -3 32 -13 35 -21 3 -8 17 -14 31 -14
14 0 25 -4 25 -10 0 -5 7 -7 15 -4 10 4 15 0 15 -12 1 -18 1 -18 15 0 13 17
15 18 15 3 0 -20 16 -23 23 -4 3 7 6 4 6 -7 1 -12 6 -16 16 -12 9 3 15 0 15
-9 0 -21 20 -19 21 3 0 12 3 10 11 -8 10 -24 10 -24 18 -5 8 19 9 19 16 -4 6
-20 8 -22 13 -8 5 15 9 15 33 3 24 -13 27 -12 31 2 4 15 5 14 6 -1 1 -14 6
-17 21 -12 12 4 20 2 20 -5 0 -6 4 -9 9 -6 5 3 12 -6 15 -19 4 -14 11 -23 15
-20 5 3 11 -1 14 -7 3 -8 9 -3 15 12 10 23 17 14 13 -17 -1 -7 3 -13 9 -13 5
0 10 8 10 18 1 16 2 16 14 -1 8 -10 18 -18 22 -17 5 1 11 -7 15 -17 5 -11 8
-12 8 -4 1 10 4 11 15 2 11 -9 15 -9 18 1 3 9 9 8 23 -5 10 -10 45 -32 79 -48
34 -16 74 -39 91 -51 47 -36 125 -112 125 -123 0 -5 18 -30 40 -53 22 -24 40
-47 40 -51 0 -3 20 -33 44 -65 24 -32 49 -76 57 -98 15 -45 29 -59 29 -27 0
51 -162 309 -250 396 -40 41 -148 111 -223 146 -32 15 -60 27 -63 27 -18 0
-94 43 -94 53 0 8 -4 7 -10 -3 -9 -14 -15 -7 -10 15 1 6 -4 5 -11 -2 -7 -7
-18 -8 -28 -3 -9 5 -31 15 -48 22 -37 15 -45 34 -10 24 12 -4 32 -9 44 -12 12
-2 34 -9 49 -14 14 -6 30 -8 35 -4 5 3 8 0 7 -8 -2 -8 8 -14 27 -14 17 -1 33
-3 38 -4 4 -1 10 -3 15 -4 4 -2 21 -8 37 -15 17 -7 44 -19 60 -26 17 -7 48
-20 71 -29 76 -32 127 -90 273 -309 39 -58 75 -109 81 -112 8 -5 11 71 8 279
-2 221 -6 286 -15 286 -15 0 -17 16 -4 24 5 4 12 0 14 -6 3 -7 6 -1 6 15 1 15
-3 27 -9 27 -5 0 -7 21 -3 50 4 34 2 50 -6 50 -11 0 -15 -24 -11 -70 2 -21 0
-22 -14 -11 -14 12 -16 10 -16 -18 0 -17 5 -31 10 -31 6 0 10 -8 10 -17 -1
-16 -2 -16 -15 1 -9 12 -15 42 -15 72 0 29 -4 55 -10 59 -5 3 -7 -8 -5 -29 5
-34 -8 -56 -20 -36 -9 15 -22 12 -29 -6 -4 -12 -1 -14 14 -9 15 5 21 0 26 -19
3 -14 3 -29 0 -34 -3 -5 1 -18 9 -28 9 -12 14 -14 15 -6 0 23 20 2 20 -22 0
-28 -25 -54 -33 -34 -4 8 -6 7 -6 -4 -1 -10 -6 -18 -11 -18 -12 0 -52 22 -60
32 -3 4 -18 5 -33 4 -18 -2 -27 1 -27 10 0 8 -5 14 -11 14 -7 0 -9 -10 -5 -25
5 -18 2 -25 -9 -25 -8 0 -15 8 -16 18 0 14 -2 14 -9 -3 -8 -19 -9 -19 -9 3 -1
32 -21 27 -22 -5 -2 -24 -2 -25 -6 -5 -5 25 -35 45 -56 36 -8 -3 -18 -1 -22 5
-3 6 -15 11 -26 11 -11 0 -22 7 -26 16 -6 15 -8 15 -20 -2 -12 -17 -13 -16
-13 7 0 18 -3 20 -9 10 -5 -8 -19 -16 -30 -18 -18 -2 -21 3 -22 30 0 31 0 32
-11 7 l-10 -25 -9 23 c-4 12 -6 30 -3 40 5 14 4 15 -5 2 -6 -8 -8 -23 -5 -32
3 -10 1 -18 -5 -18 -5 0 -12 8 -15 18 -5 13 -17 17 -57 18 -37 0 -55 5 -64 18
-7 9 -15 13 -16 8 -3 -6 -13 -6 -26 -1 -16 6 -23 17 -24 36 0 25 -1 26 -9 8
-5 -11 -9 -14 -9 -7 -1 6 -6 12 -12 12 -5 0 -7 -6 -3 -12 5 -9 2 -9 -9 1 -9 7
-17 9 -17 3 0 -5 7 -15 15 -22 8 -7 12 -16 10 -20 -3 -5 -17 2 -32 16 -14 13
-30 24 -34 24 -5 0 -9 14 -9 31 0 18 -4 28 -10 24 -6 -4 -8 -11 -5 -16 4 -5 2
-9 -4 -9 -6 0 -13 17 -16 38 -9 50 -13 61 -14 35 -1 -26 -21 -42 -21 -17 0 10
-3 15 -6 11 -6 -6 -38 25 -64 63 -8 13 -20 28 -26 34 -6 7 -15 22 -19 35 -5
16 -10 20 -15 11 -5 -8 -9 -8 -13 4 -4 10 -12 13 -23 9 -13 -5 -16 -3 -11 10
3 9 2 19 -3 22 -6 4 -10 1 -10 -5 0 -6 -5 -8 -10 -5 -6 4 -8 10 -5 15 3 4 -6
11 -19 14 -13 3 -30 8 -38 10 -7 2 -21 2 -30 -1z m459 -355 c-3 -8 -6 -5 -6 6
-1 11 2 17 5 13 3 -3 4 -12 1 -19z m180 -60 c-3 -8 -6 -5 -6 6 -1 11 2 17 5
13 3 -3 4 -12 1 -19z m593 -44 c0 -8 -4 -12 -10 -9 -5 3 -10 10 -10 16 0 5 5
9 10 9 6 0 10 -7 10 -16z m-6 -49 c-4 -8 -8 -15 -10 -15 -2 0 -4 7 -4 15 0 8
4 15 10 15 5 0 7 -7 4 -15z m-161 -50 c-3 -9 -8 -14 -10 -11 -3 3 -2 9 2 15 9
16 15 13 8 -4z m127 6 c0 -6 -4 -13 -10 -16 -5 -3 -10 1 -10 9 0 9 5 16 10 16
6 0 10 -4 10 -9z"/>
<path d="M5638 5953 c-12 -27 -22 -73 -23 -104 -2 -31 -6 -67 -10 -80 -6 -22
-6 -23 9 -9 11 11 17 38 20 86 2 45 11 84 25 112 12 23 17 42 11 42 -6 0 -21
-21 -32 -47z"/>
<path d="M2184 5979 c-3 -6 -1 -16 5 -22 8 -8 11 -5 11 11 0 24 -5 28 -16 11z"/>
<path d="M2216 5980 c-2 -3 0 -14 5 -25 7 -19 8 -19 8 -1 1 20 1 20 16 0 14
-19 14 -19 15 1 1 11 4 14 7 8 7 -19 25 -16 21 4 -2 12 -13 17 -36 18 -18 0
-35 -2 -36 -5z"/>
<path d="M4660 5980 c0 -5 5 -10 10 -10 6 0 10 5 10 10 0 6 -4 10 -10 10 -5 0
-10 -4 -10 -10z"/>
<path d="M5910 5978 c0 -10 7 -18 15 -18 8 0 15 -4 15 -9 0 -5 -7 -11 -15 -15
-17 -6 -20 -36 -4 -36 6 0 8 7 5 16 -4 10 -1 14 6 12 7 -3 15 -15 19 -29 5
-17 6 -12 7 19 0 31 -5 45 -17 50 -9 3 -19 10 -23 16 -5 7 -8 4 -8 -6z"/>
<path d="M5950 5986 c0 -9 40 -13 46 -5 3 5 -6 9 -20 9 -14 0 -26 -2 -26 -4z"/>
<path d="M1931 5968 c3 -19 -11 -48 -23 -48 -6 0 -8 7 -4 15 6 17 -9 21 -19 5
-11 -18 -35 -11 -35 11 0 18 -2 19 -15 5 -8 -8 -15 -18 -15 -23 0 -4 -14 -8
-31 -9 -22 -1 -29 3 -25 13 3 8 2 11 -3 8 -11 -6 -3 -75 12 -92 6 -9 6 -13 -2
-13 -6 0 -11 -4 -11 -10 0 -5 7 -10 15 -10 8 0 15 -4 15 -10 0 -5 -7 -10 -15
-10 -8 0 -15 -4 -15 -10 0 -5 9 -10 20 -10 11 0 20 5 20 10 0 6 9 10 20 10 32
0 23 -26 -13 -37 -46 -14 -57 -7 -57 38 0 35 -3 39 -25 39 -14 0 -25 4 -25 8
0 4 -20 13 -45 20 -46 12 -73 46 -55 66 10 10 2 36 -11 36 -4 0 -6 -7 -3 -15
4 -10 0 -15 -15 -15 -14 0 -19 5 -15 15 4 10 0 15 -11 15 -16 0 -16 -2 -1 -25
l16 -25 -35 0 -35 0 0 -59 c0 -33 -4 -62 -9 -65 -14 -9 -19 25 -11 82 6 47 5
52 -13 52 -13 0 -17 5 -13 16 3 8 2 12 -4 9 -6 -3 -10 -13 -10 -21 0 -8 -4
-14 -8 -14 -5 0 -17 -18 -27 -40 -10 -22 -21 -40 -24 -40 -12 0 -33 -90 -25
-107 7 -16 8 -15 11 5 5 24 13 28 30 11 14 -14 53 9 53 31 0 8 11 -2 25 -21
13 -20 31 -39 41 -43 11 -4 14 -13 11 -27 -5 -17 -2 -20 13 -16 11 3 21 0 22
-5 3 -7 11 -7 26 1 17 9 22 21 22 51 0 35 3 40 23 40 32 1 55 22 60 55 3 24 4
21 6 -12 0 -24 -3 -43 -9 -43 -5 0 -10 -4 -10 -10 0 -5 7 -10 16 -10 12 0 11
-4 -7 -19 l-23 -18 40 2 c50 3 53 4 29 16 -15 7 -11 8 18 5 27 -4 36 -2 31 7
-5 8 -3 8 7 0 18 -18 32 -16 25 2 -3 10 3 17 20 21 14 4 28 4 31 1 3 -4 15 -1
27 6 11 6 26 12 31 13 6 0 27 6 47 14 l38 14 -28 11 c-15 7 -44 10 -64 9 -44
-4 -49 8 -13 24 19 9 25 9 25 -1 0 -7 8 -13 19 -13 12 0 17 6 13 18 -3 12 4
21 22 29 14 7 26 20 26 31 0 14 8 18 35 18 l35 0 0 -52 c0 -28 3 -48 7 -44 4
4 6 25 4 46 -1 24 2 40 8 40 6 0 11 -18 11 -40 0 -22 4 -40 9 -40 5 0 7 18 4
40 -4 26 -2 40 6 40 6 0 12 -12 12 -27 1 -20 3 -22 6 -9 10 38 -37 88 -50 54
-3 -7 -6 -1 -6 15 -1 20 -6 27 -22 27 -11 0 -17 -4 -14 -10 4 -6 -5 -10 -19
-10 -14 0 -26 -5 -26 -11 0 -5 -4 -8 -10 -4 -5 3 -7 12 -3 20 4 11 -3 15 -26
15 -20 0 -31 -5 -30 -12z m-11 -88 c0 -5 -4 -10 -10 -10 -5 0 -10 5 -10 10 0
6 5 10 10 10 6 0 10 -4 10 -10z m-377 -52 c-29 -14 -30 -28 -2 -28 26 0 20
-20 -9 -31 -20 -8 -22 -5 -22 25 0 38 6 46 34 45 20 0 20 -1 -1 -11z m202 -78
c13 -6 15 -9 5 -9 -8 0 -22 4 -30 9 -18 12 -2 12 25 0z"/>
<path d="M2135 5969 c7 -11 35 -12 35 -1 0 4 -9 8 -20 9 -11 1 -18 -2 -15 -8z"/>
<path d="M2596 5965 c4 -8 10 -15 15 -15 4 0 6 7 3 15 -4 8 -10 15 -15 15 -4
0 -6 -7 -3 -15z"/>
<path d="M4060 5970 c0 -5 5 -10 10 -10 6 0 10 5 10 10 0 6 -4 10 -10 10 -5 0
-10 -4 -10 -10z"/>
<path d="M5877 5960 c3 -11 7 -20 8 -20 1 0 5 9 8 20 3 12 0 20 -8 20 -8 0
-11 -8 -8 -20z"/>
<path d="M1330 5960 c0 -5 5 -10 10 -10 6 0 10 5 10 10 0 6 -4 10 -10 10 -5 0
-10 -4 -10 -10z"/>
<path d="M4035 5957 c-4 -10 -5 -21 -1 -24 10 -10 18 4 13 24 -4 17 -4 17 -12
0z"/>
<path d="M1622 5940 c0 -14 2 -19 5 -12 2 6 2 18 0 25 -3 6 -5 1 -5 -13z"/>
<path d="M1387 5944 c-8 -8 1 -24 14 -24 5 0 9 7 9 15 0 15 -12 20 -23 9z"/>
<path d="M1646 5935 c-3 -8 -1 -15 4 -15 6 0 10 7 10 15 0 8 -2 15 -4 15 -2 0
-6 -7 -10 -15z"/>
<path d="M1310 5930 c0 -5 4 -10 9 -10 6 0 13 5 16 10 3 6 -1 10 -9 10 -9 0
-16 -4 -16 -10z"/>
<path d="M2163 5915 c0 -7 6 -11 14 -8 7 3 13 6 13 8 0 2 -6 5 -13 8 -8 3 -14
-1 -14 -8z"/>
<path d="M5885 5919 c-4 -6 -5 -12 -2 -15 2 -3 7 2 10 11 7 17 1 20 -8 4z"/>
<path d="M5980 5914 c0 -8 5 -12 10 -9 6 4 8 11 5 16 -9 14 -15 11 -15 -7z"/>
<path d="M2032 5883 c-2 -43 -9 -49 -52 -43 -23 3 1 -17 30 -25 17 -4 21 -3
12 3 -11 8 -11 10 2 15 8 3 17 1 19 -6 2 -7 8 -8 13 -4 5 4 3 11 -3 15 -6 4
-13 25 -16 47 l-4 40 -1 -42z"/>
<path d="M5981 5864 c0 -11 3 -14 6 -6 3 7 2 16 -1 19 -3 4 -6 -2 -5 -13z"/>
<path d="M3120 5810 c0 -19 3 -21 12 -12 9 9 9 15 0 24 -9 9 -12 7 -12 -12z"/>
<path d="M4353 5823 c-31 -6 -29 -20 2 -20 15 0 25 5 25 13 0 8 -1 13 -2 13
-2 -1 -13 -4 -25 -6z"/>
<path d="M5970 5813 c0 -14 19 -38 25 -32 8 8 -5 39 -16 39 -5 0 -9 -3 -9 -7z"/>
<path d="M4295 5800 c4 -6 11 -8 16 -5 14 9 11 15 -7 15 -8 0 -12 -5 -9 -10z"/>
<path d="M5921 5794 c0 -11 3 -14 6 -6 3 7 2 16 -1 19 -3 4 -6 -2 -5 -13z"/>
<path d="M5570 5745 c-7 -8 -18 -15 -24 -14 -22 3 -36 -1 -36 -9 0 -16 61 1
71 19 12 23 6 25 -11 4z"/>
<path d="M5950 5733 c0 -22 2 -25 10 -13 13 20 13 40 0 40 -5 0 -10 -12 -10
-27z"/>
<path d="M1610 5740 c0 -5 7 -10 15 -10 8 0 15 5 15 10 0 6 -7 10 -15 10 -8 0
-15 -4 -15 -10z"/>
<path d="M1830 5739 c0 -5 5 -7 10 -4 6 3 10 8 10 11 0 2 -4 4 -10 4 -5 0 -10
-5 -10 -11z"/>
<path d="M4335 5741 c-3 -5 -1 -12 5 -16 5 -3 10 1 10 9 0 18 -6 21 -15 7z"/>
<path d="M5120 5718 c0 -16 5 -28 10 -28 13 0 13 20 0 40 -8 12 -10 9 -10 -12z"/>
<path d="M1610 5700 c0 -13 11 -13 30 0 12 8 11 10 -7 10 -13 0 -23 -4 -23
-10z"/>
<path d="M4252 5680 c0 -19 2 -27 5 -17 2 9 2 25 0 35 -3 9 -5 1 -5 -18z"/>
<path d="M4273 5675 c0 -22 2 -30 4 -17 2 12 2 30 0 40 -3 9 -5 -1 -4 -23z"/>
<path d="M4307 5683 c-10 -9 -9 -63 1 -63 4 0 8 16 8 35 0 38 0 38 -9 28z"/>
<path d="M4364 5675 c-3 -8 -4 -20 -2 -27 3 -7 7 -1 10 15 6 29 1 36 -8 12z"/>
<path d="M1402 5664 c-11 -12 -10 -15 2 -20 21 -8 36 4 29 21 -7 19 -14 18
-31 -1z"/>
<path d="M1485 5666 c17 -12 14 -15 -36 -29 -30 -8 -78 -15 -108 -16 -30 -1
-57 -3 -59 -5 -2 -2 -17 0 -33 4 -22 7 -31 5 -39 -8 -6 -11 -10 -12 -10 -4 0
10 -3 10 -14 0 -10 -9 -11 -15 -2 -20 15 -10 48 -10 43 0 -3 4 12 7 33 7 21 1
36 -3 34 -7 -3 -4 2 -8 10 -8 8 0 17 4 20 9 3 5 23 11 43 14 50 7 184 55 156
56 -12 1 -25 6 -28 11 -3 6 -11 10 -18 10 -6 0 -2 -6 8 -14z"/>
<path d="M755 5640 c3 -5 8 -10 11 -10 2 0 4 5 4 10 0 6 -5 10 -11 10 -5 0 -7
-4 -4 -10z"/>
<path d="M4792 5630 c0 -14 2 -19 5 -12 2 6 2 18 0 25 -3 6 -5 1 -5 -13z"/>
<path d="M4000 5630 c0 -5 5 -10 10 -10 6 0 10 5 10 10 0 6 -4 10 -10 10 -5 0
-10 -4 -10 -10z"/>
<path d="M3970 5584 c0 -8 5 -12 10 -9 6 3 10 10 10 16 0 5 -4 9 -10 9 -5 0
-10 -7 -10 -16z"/>
<path d="M4241 5584 c0 -11 3 -14 6 -6 3 7 2 16 -1 19 -3 4 -6 -2 -5 -13z"/>
<path d="M1250 5565 c10 -12 10 -15 -3 -15 -9 0 -19 5 -23 11 -4 8 -9 7 -15
-2 -7 -12 -9 -12 -9 0 0 23 -30 -8 -31 -33 0 -21 0 -21 -16 2 -8 12 -19 22
-24 22 -16 0 -9 -29 9 -39 11 -7 12 -11 4 -11 -7 0 -20 7 -28 15 -18 17 -34
20 -34 5 0 -6 -11 -8 -25 -4 -21 5 -25 3 -25 -15 0 -12 -4 -21 -10 -21 -5 0
-10 9 -10 21 0 11 -4 17 -10 14 -15 -9 -12 -41 5 -55 12 -10 18 -10 31 1 12
10 17 10 23 0 6 -9 28 -3 90 27 44 21 78 42 74 47 -5 4 -2 5 4 1 16 -9 56 17
45 30 -4 4 0 3 8 -3 9 -7 21 -8 29 -4 14 9 -16 21 -53 21 -15 0 -16 -3 -6 -15z
m-145 -75 c3 -5 -1 -10 -10 -10 -9 0 -13 5 -10 10 3 6 8 10 10 10 2 0 7 -4 10
-10z"/>
<path d="M910 5542 c0 -19 27 -38 38 -27 3 3 0 5 -6 5 -7 0 -12 6 -12 14 0 8
-4 18 -10 21 -5 3 -10 -3 -10 -13z"/>
<path d="M3702 5540 c0 -14 2 -19 5 -12 2 6 2 18 0 25 -3 6 -5 1 -5 -13z"/>
<path d="M3670 5505 c0 -8 4 -15 10 -15 5 0 7 7 4 15 -4 8 -8 15 -10 15 -2 0
-4 -7 -4 -15z"/>
<path d="M3460 5480 c0 -19 5 -26 20 -26 14 0 20 7 19 21 0 11 -3 14 -6 7 -4
-10 -8 -9 -19 5 -12 17 -13 16 -14 -7z"/>
<path d="M3521 5484 c0 -11 3 -14 6 -6 3 7 2 16 -1 19 -3 4 -6 -2 -5 -13z"/>
<path d="M4270 5486 c0 -9 5 -16 10 -16 6 0 10 4 10 9 0 6 -4 13 -10 16 -5 3
-10 -1 -10 -9z"/>
<path d="M3400 5470 c0 -12 8 -17 25 -17 18 0 25 4 23 15 -4 22 -48 23 -48 2z"/>
<path d="M4243 5468 c1 -15 6 -23 11 -18 4 4 4 16 -2 26 -9 16 -10 14 -9 -8z"/>
<path d="M3540 5470 c0 -5 5 -10 11 -10 5 0 7 5 4 10 -3 6 -8 10 -11 10 -2 0
-4 -4 -4 -10z"/>
<path d="M3365 5450 c-3 -5 1 -10 10 -10 9 0 13 5 10 10 -3 6 -8 10 -10 10 -2
0 -7 -4 -10 -10z"/>
<path d="M3240 5305 c0 -14 3 -25 8 -25 4 0 7 11 7 25 0 14 -3 25 -7 25 -5 0
-8 -11 -8 -25z"/>
<path d="M3152 5175 c0 -36 5 -65 9 -65 5 0 9 29 9 65 0 36 -4 65 -10 65 -5 0
-9 -29 -8 -65z"/>
<path d="M3910 5085 c0 -49 3 -86 6 -83 3 3 5 41 5 83 0 42 -2 80 -5 83 -3 3
-6 -34 -6 -83z"/>
<path d="M3943 5135 c0 -22 2 -30 4 -17 2 12 2 30 0 40 -3 9 -5 -1 -4 -23z"/>
<path d="M3970 5160 c0 -5 5 -10 10 -10 6 0 10 5 10 10 0 6 -4 10 -10 10 -5 0
-10 -4 -10 -10z"/>
<path d="M3157 5083 c-4 -3 -7 -33 -7 -66 0 -77 12 -67 15 13 3 63 2 64 -8 53z"/>
<path d="M4032 5065 c0 -16 2 -22 5 -12 2 9 2 23 0 30 -3 6 -5 -1 -5 -18z"/>
<path d="M3090 5066 c0 -8 5 -18 10 -21 6 -3 10 3 10 14 0 12 -4 21 -10 21 -5
0 -10 -6 -10 -14z"/>
<path d="M3958 5073 c-10 -2 -18 -11 -18 -20 0 -12 3 -13 13 -4 8 6 17 8 20 4
4 -3 7 1 7 10 0 10 -1 16 -2 16 -2 -1 -11 -3 -20 -6z"/>
<path d="M5843 5065 c0 -8 4 -12 9 -9 5 3 6 10 3 15 -9 13 -12 11 -12 -6z"/>
<path d="M3763 5025 c0 -22 2 -30 4 -17 2 12 2 30 0 40 -3 9 -5 -1 -4 -23z"/>
<path d="M3180 5003 c0 -25 3 -43 6 -40 10 9 11 87 2 87 -5 0 -8 -21 -8 -47z"/>
<path d="M3820 5000 c0 -22 3 -40 8 -40 4 0 6 18 4 40 -2 22 -6 40 -8 40 -2 0
-4 -18 -4 -40z"/>
<path d="M3940 5000 c0 -16 2 -30 4 -30 2 0 6 14 8 30 3 17 1 30 -4 30 -4 0
-8 -13 -8 -30z"/>
<path d="M4058 4974 c2 -20 8 -32 12 -27 10 9 1 63 -9 63 -4 0 -5 -16 -3 -36z"/>
<path d="M3703 4955 c0 -27 2 -38 4 -22 2 15 2 37 0 50 -2 12 -4 0 -4 -28z"/>
<path d="M3210 4952 c0 -23 5 -42 10 -42 7 0 8 14 4 38 -9 51 -14 53 -14 4z"/>
<path d="M3972 4960 c0 -14 2 -19 5 -12 2 6 2 18 0 25 -3 6 -5 1 -5 -13z"/>
<path d="M3368 4943 c5 -21 7 -23 10 -9 2 10 0 22 -6 28 -6 6 -7 0 -4 -19z"/>
<path d="M3116 4925 c8 -50 10 -52 16 -20 3 14 -1 33 -9 42 -12 16 -13 13 -7
-22z"/>
<path d="M3756 4929 c-8 -41 -8 -49 2 -49 4 0 8 18 9 40 2 48 -2 51 -11 9z"/>
<path d="M3788 4928 c-4 -73 -3 -108 4 -130 3 -13 6 19 7 70 1 50 -1 92 -4 92
-3 0 -6 -15 -7 -32z"/>
<path d="M3881 4924 c0 -11 3 -14 6 -6 3 7 2 16 -1 19 -3 4 -6 -2 -5 -13z"/>
<path d="M3669 4885 c-6 -54 -4 -64 10 -49 5 5 6 29 2 54 l-7 45 -5 -50z"/>
<path d="M3911 4914 c0 -11 3 -14 6 -6 3 7 2 16 -1 19 -3 4 -6 -2 -5 -13z"/>
<path d="M3732 4900 c0 -14 2 -19 5 -12 2 6 2 18 0 25 -3 6 -5 1 -5 -13z"/>
<path d="M3941 4904 c0 -11 3 -14 6 -6 3 7 2 16 -1 19 -3 4 -6 -2 -5 -13z"/>
<path d="M3155 4890 c-3 -5 -1 -10 4 -10 6 0 11 5 11 10 0 6 -2 10 -4 10 -3 0
-8 -4 -11 -10z"/>
<path d="M4062 4880 c0 -14 2 -19 5 -12 2 6 2 18 0 25 -3 6 -5 1 -5 -13z"/>
<path d="M3491 4864 c0 -11 3 -14 6 -6 3 7 2 16 -1 19 -3 4 -6 -2 -5 -13z"/>
<path d="M3541 4873 c0 -7 -8 -10 -16 -7 -17 7 -21 -31 -5 -56 8 -12 10 -11
10 7 0 12 5 23 11 25 6 2 9 13 6 23 -2 11 -5 15 -6 8z"/>
<path d="M5900 4876 c0 -2 7 -7 16 -10 8 -3 12 -2 9 4 -6 10 -25 14 -25 6z"/>
<path d="M4032 4850 c0 -14 2 -19 5 -12 2 6 2 18 0 25 -3 6 -5 1 -5 -13z"/>
<path d="M3165 4851 c-3 -5 -1 -12 5 -16 5 -3 10 1 10 9 0 18 -6 21 -15 7z"/>
<path d="M3702 4835 c0 -16 2 -22 5 -12 2 9 2 23 0 30 -3 6 -5 -1 -5 -18z"/>
<path d="M3720 4843 c0 -10 5 -25 10 -33 7 -11 10 -7 10 18 0 17 -4 32 -10 32
-5 0 -10 -8 -10 -17z"/>
<path d="M5976 4847 c3 -10 9 -15 12 -12 3 3 0 11 -7 18 -10 9 -11 8 -5 -6z"/>
<path d="M3491 4814 c0 -11 3 -14 6 -6 3 7 2 16 -1 19 -3 4 -6 -2 -5 -13z"/>
<path d="M3607 4823 c-2 -5 -1 -19 4 -33 7 -23 7 -23 8 8 1 31 -3 40 -12 25z"/>
<path d="M3968 4783 c-2 -27 -1 -66 3 -88 5 -30 7 -17 8 48 1 94 -5 116 -11
40z"/>
<path d="M3758 4795 c-3 -14 -1 -28 3 -31 5 -3 9 9 9 25 0 38 -6 40 -12 6z"/>
<path d="M4000 4805 c-1 -11 -2 -37 -4 -57 -2 -21 0 -35 4 -33 13 8 18 56 10
84 -7 21 -9 22 -10 6z"/>
<path d="M4063 4770 c0 -30 2 -43 4 -27 2 15 2 39 0 55 -2 15 -4 2 -4 -28z"/>
<path d="M3547 4763 c8 -52 13 -54 13 -5 0 23 -4 42 -9 42 -6 0 -7 -17 -4 -37z"/>
<path d="M3577 4779 c-3 -12 -2 -31 3 -42 7 -18 9 -14 9 21 1 46 -4 54 -12 21z"/>
<path d="M4032 4775 c0 -16 2 -22 5 -12 2 9 2 23 0 30 -3 6 -5 -1 -5 -18z"/>
<path d="M4246 4787 c3 -10 9 -15 12 -12 3 3 0 11 -7 18 -10 9 -11 8 -5 -6z"/>
<path d="M3882 4770 c0 -14 2 -19 5 -12 2 6 2 18 0 25 -3 6 -5 1 -5 -13z"/>
<path d="M3516 4762 c-5 -15 -3 -29 6 -39 10 -13 10 -17 1 -20 -15 -5 -18 -33
-4 -33 14 0 19 33 12 76 -6 35 -8 36 -15 16z"/>
<path d="M3695 4770 c3 -5 8 -10 11 -10 2 0 4 5 4 10 0 6 -5 10 -11 10 -5 0
-7 -4 -4 -10z"/>
<path d="M4181 4764 c0 -11 3 -14 6 -6 3 7 2 16 -1 19 -3 4 -6 -2 -5 -13z"/>
<path d="M4278 4763 c0 -5 -2 -14 -2 -20 -1 -7 -6 -12 -11 -12 -6 1 -9 5 -7
10 1 5 -2 9 -8 9 -15 0 -12 -12 10 -40 18 -23 20 -23 21 -5 0 11 2 30 3 43 2
20 -2 32 -6 15z"/>
<path d="M4091 4714 c0 -11 3 -14 6 -6 3 7 2 16 -1 19 -3 4 -6 -2 -5 -13z"/>
<path d="M4018 4702 c-11 -2 -18 -12 -17 -25 1 -17 2 -18 6 -4 5 20 19 23 26
5 2 -7 7 -11 9 -8 11 11 -8 35 -24 32z"/>
<path d="M4235 4701 c-3 -5 -1 -12 5 -16 5 -3 10 1 10 9 0 18 -6 21 -15 7z"/>
<path d="M4330 4681 c4 -16 7 -31 5 -33 -2 -2 14 -3 35 -3 21 0 42 4 46 8 5 4
0 5 -10 1 -15 -6 -17 -4 -11 7 7 11 5 11 -10 -1 -17 -14 -18 -13 -13 2 4 9 1
19 -7 22 -10 3 -12 0 -9 -12 3 -9 -2 -5 -11 11 -20 35 -26 34 -15 -2z"/>
<path d="M4485 4580 c3 -5 8 -10 11 -10 2 0 4 5 4 10 0 6 -5 10 -11 10 -5 0
-7 -4 -4 -10z"/>
<path d="M5980 4529 c0 -5 5 -7 10 -4 6 3 10 8 10 11 0 2 -4 4 -10 4 -5 0 -10
-5 -10 -11z"/>
<path d="M4697 4501 c3 -12 9 -21 13 -21 12 0 5 33 -8 38 -6 2 -8 -5 -5 -17z"/>
<path d="M5880 4495 c0 -8 5 -15 10 -15 6 0 10 7 10 15 0 8 -4 15 -10 15 -5 0
-10 -7 -10 -15z"/>
<path d="M5370 4490 c-13 -9 -13 -10 0 -9 8 0 24 4 35 9 l20 9 -20 0 c-11 0
-27 -4 -35 -9z"/>
<path d="M4778 4471 c-9 -11 -14 -22 -11 -25 8 -7 35 22 31 34 -2 6 -11 2 -20
-9z"/>
<path d="M4810 4471 c0 -6 5 -13 10 -16 6 -3 10 1 10 9 0 9 -4 16 -10 16 -5 0
-10 -4 -10 -9z"/>
<path d="M4600 4448 c0 -13 5 -30 10 -38 7 -11 10 -7 10 17 0 17 -4 35 -10 38
-6 3 -10 -4 -10 -17z"/>
<path d="M4630 4420 c0 -11 4 -20 9 -20 5 0 7 9 4 20 -3 11 -7 20 -9 20 -2 0
-4 -9 -4 -20z"/>
<path d="M5974 4414 c6 -34 12 -39 18 -17 3 10 -1 24 -9 31 -11 11 -13 9 -9
-14z"/>
<path d="M4570 4420 c0 -5 5 -10 10 -10 6 0 10 5 10 10 0 6 -4 10 -10 10 -5 0
-10 -4 -10 -10z"/>
<path d="M4815 4410 c-3 -5 3 -10 14 -10 16 0 21 -6 21 -25 0 -14 5 -25 11
-25 6 0 8 7 5 16 -3 9 -6 20 -6 24 0 15 -38 31 -45 20z"/>
<path d="M4976 4404 c-8 -21 -8 -69 1 -60 7 7 15 76 9 76 -2 0 -7 -7 -10 -16z"/>
<path d="M5070 4400 c0 -8 -3 -25 -6 -37 -4 -14 -2 -23 5 -23 6 0 11 7 11 16
0 10 6 14 15 10 10 -3 15 1 15 11 0 9 -3 13 -7 10 -3 -4 -12 1 -19 11 -11 14
-13 14 -14 2z"/>
<path d="M5516 4389 c1 -13 3 -26 3 -29 2 -12 41 -5 41 7 0 7 -5 13 -11 13 -7
0 -17 7 -24 16 -10 15 -12 14 -9 -7z"/>
<path d="M4791 4384 c0 -11 3 -14 6 -6 3 7 2 16 -1 19 -3 4 -6 -2 -5 -13z"/>
<path d="M5120 4373 c0 -16 5 -35 10 -43 7 -11 10 -4 10 28 0 23 -4 42 -10 42
-5 0 -10 -12 -10 -27z"/>
<path d="M5430 4371 c0 -14 5 -33 10 -41 8 -11 9 -8 4 13 -4 17 -2 27 5 27 6
0 11 -12 12 -27 1 -25 2 -25 9 7 9 39 8 43 -20 45 -15 1 -20 -5 -20 -24z"/>
<path d="M5736 4382 c-6 -18 -11 -21 -22 -11 -7 6 -20 9 -28 6 -8 -3 -29 -2
-45 3 -27 7 -31 6 -31 -11 0 -10 6 -19 14 -19 8 0 16 -8 19 -17 3 -15 6 -14
15 7 10 24 11 23 12 -15 1 -35 2 -37 11 -17 5 13 7 28 4 32 -3 5 0 12 6 15 7
5 10 -3 8 -21 -3 -45 0 -64 12 -64 6 0 10 10 9 23 -4 45 0 57 20 57 19 0 24
-9 21 -40 -2 -13 -1 -13 8 0 14 20 14 93 0 85 -6 -4 -8 -13 -5 -21 3 -8 1 -14
-4 -14 -5 0 -10 10 -12 23 l-4 22 -8 -23z"/>
<path d="M5189 4385 c-6 -3 -5 -55 2 -55 5 0 9 9 9 21 0 15 5 19 15 15 9 -3
15 0 15 9 0 10 -28 17 -41 10z"/>
<path d="M5584 4379 c-3 -6 -1 -16 5 -22 8 -8 11 -5 11 11 0 24 -5 28 -16 11z"/>
<path d="M4883 4315 c0 -38 2 -53 4 -32 2 20 2 52 0 70 -2 17 -4 1 -4 -38z"/>
<path d="M4630 4360 c0 -5 5 -10 11 -10 5 0 7 5 4 10 -3 6 -8 10 -11 10 -2 0
-4 -4 -4 -10z"/>
<path d="M5270 4324 c0 -30 4 -43 11 -38 6 3 8 16 5 27 -3 12 -1 26 5 33 6 8
5 13 -6 18 -12 4 -15 -3 -15 -40z"/>
<path d="M5921 4354 c0 -11 3 -14 6 -6 3 7 2 16 -1 19 -3 4 -6 -2 -5 -13z"/>
<path d="M5951 4344 c0 -11 3 -14 6 -6 3 7 2 16 -1 19 -3 4 -6 -2 -5 -13z"/>
<path d="M5156 4318 c-7 -45 -3 -155 7 -164 4 -4 7 38 6 94 0 56 -2 102 -4
102 -2 0 -6 -15 -9 -32z"/>
<path d="M5221 4334 c0 -11 3 -14 6 -6 3 7 2 16 -1 19 -3 4 -6 -2 -5 -13z"/>
<path d="M5798 4345 c-2 -6 -6 -31 -7 -56 -2 -43 0 -47 23 -51 25 -5 26 -3 26
43 0 36 -4 49 -14 49 -8 0 -16 5 -18 12 -3 7 -7 8 -10 3z m32 -65 c0 -16 -4
-30 -10 -30 -5 0 -10 14 -10 30 0 17 5 30 10 30 6 0 10 -13 10 -30z"/>
<path d="M5238 4310 c-7 -16 -16 -30 -20 -30 -5 0 -8 -13 -8 -30 0 -16 5 -30
10 -30 6 0 10 6 10 14 0 8 4 16 9 18 9 3 24 88 16 88 -2 0 -9 -13 -17 -30z"/>
<path d="M5296 4332 c-2 -4 -1 -14 4 -22 5 -8 7 -38 4 -66 -4 -33 -2 -54 5
-58 6 -4 11 0 11 9 0 11 5 15 15 11 10 -3 15 1 15 14 0 34 20 33 21 -2 2 -30
2 -31 6 -5 4 25 23 39 23 16 0 -5 4 -8 10 -4 5 3 7 12 4 19 -3 8 -1 17 5 21 6
3 11 -1 11 -9 0 -29 15 -16 17 14 3 37 -9 38 -35 5 -13 -17 -23 -22 -27 -15
-4 6 3 22 15 35 l22 23 -26 -2 c-18 -1 -26 -7 -26 -19 0 -11 -6 -17 -17 -15
-14 2 -17 -3 -15 -24 1 -16 -2 -28 -8 -28 -8 0 -16 72 -11 103 1 10 -17 9 -23
-1z"/>
<path d="M5503 4325 c-7 -8 -13 -24 -12 -37 1 -23 1 -23 8 1 8 29 31 40 31 15
0 -9 3 -15 6 -11 7 7 -5 47 -14 47 -4 -1 -13 -7 -19 -15z"/>
<path d="M5886 4332 c-4 -6 -13 -9 -21 -5 -10 3 -15 -1 -15 -12 0 -12 5 -15
20 -10 11 4 20 2 20 -4 0 -6 -6 -11 -14 -11 -19 0 -26 -23 -16 -57 l8 -28 1
33 c1 34 26 46 37 17 8 -20 24 -19 24 2 0 18 14 9 16 -10 0 -7 2 -20 2 -29 1
-10 9 -18 17 -18 8 0 15 -7 15 -15 0 -8 -7 -15 -15 -15 -8 0 -15 -4 -15 -10 0
-5 6 -9 13 -7 7 1 14 -15 18 -43 l6 -45 3 60 c2 33 4 74 5 90 4 51 -6 97 -21
91 -7 -3 -15 0 -18 7 -3 9 -5 9 -5 0 -1 -15 -32 -5 -47 15 -8 11 -13 12 -18 4z
m94 -91 c0 -6 -4 -13 -10 -16 -5 -3 -10 1 -10 9 0 9 5 16 10 16 6 0 10 -4 10
-9z"/>
<path d="M4930 4314 c0 -32 12 -64 21 -58 14 8 10 50 -6 64 -12 10 -15 9 -15
-6z"/>
<path d="M5090 4308 c0 -12 3 -18 7 -14 11 10 12 36 2 36 -5 0 -9 -10 -9 -22z"/>
<path d="M5580 4291 c0 -25 4 -40 10 -36 5 3 8 19 6 36 -5 46 -16 47 -16 0z"/>
<path d="M5730 4306 c0 -14 5 -28 10 -31 6 -4 10 7 10 24 0 17 -4 31 -10 31
-5 0 -10 -11 -10 -24z"/>
<path d="M5060 4283 c0 -24 0 -45 0 -48 0 -3 3 -4 7 -2 10 3 11 63 2 79 -6 8
-9 -3 -9 -29z"/>
<path d="M5611 4304 c0 -11 3 -14 6 -6 3 7 2 16 -1 19 -3 4 -6 -2 -5 -13z"/>
<path d="M5120 4300 c0 -5 5 -10 10 -10 6 0 10 5 10 10 0 6 -4 10 -10 10 -5 0
-10 -4 -10 -10z"/>
<path d="M5183 4231 c1 -44 5 -77 10 -74 10 6 7 153 -4 153 -5 0 -8 -36 -6
-79z"/>
<path d="M5460 4277 c0 -20 4 -37 8 -37 9 0 7 58 -2 67 -3 4 -6 -10 -6 -30z"/>
<path d="M4971 4284 c0 -11 3 -14 6 -6 3 7 2 16 -1 19 -3 4 -6 -2 -5 -13z"/>
<path d="M5120 4266 c0 -9 5 -16 10 -16 6 0 10 4 10 9 0 6 -4 13 -10 16 -5 3
-10 -1 -10 -9z"/>
<path d="M5643 4251 c0 -11 5 -17 9 -15 11 7 10 34 -1 34 -6 0 -9 -9 -8 -19z"/>
<path d="M5680 4227 c4 -41 5 -41 8 -8 2 18 0 37 -5 42 -5 5 -6 -11 -3 -34z"/>
<path d="M5767 4225 c7 -49 13 -58 13 -19 0 16 -5 36 -10 44 -6 10 -7 2 -3
-25z"/>
<path d="M5893 4225 c0 -22 2 -30 4 -17 2 12 2 30 0 40 -3 9 -5 -1 -4 -23z"/>
<path d="M4840 4236 c0 -2 7 -9 15 -16 12 -10 15 -10 15 4 0 9 -7 16 -15 16
-8 0 -15 -2 -15 -4z"/>
<path d="M5252 4215 c0 -16 2 -22 5 -12 2 9 2 23 0 30 -3 6 -5 -1 -5 -18z"/>
<path d="M5270 4210 c0 -11 5 -20 10 -20 6 0 10 9 10 20 0 11 -4 20 -10 20 -5
0 -10 -9 -10 -20z"/>
<path d="M5432 4200 c0 -14 2 -19 5 -12 2 6 2 18 0 25 -3 6 -5 1 -5 -13z"/>
<path d="M5214 4174 c3 -14 1 -47 -4 -72 -4 -26 -5 -49 0 -52 4 -3 10 -14 13
-25 2 -11 5 24 6 78 1 60 -3 97 -9 97 -6 0 -8 -12 -6 -26z"/>
<path d="M5150 4110 c0 -16 5 -30 10 -30 6 0 10 14 10 30 0 17 -4 30 -10 30
-5 0 -10 -13 -10 -30z"/>
<path d="M5184 4115 c0 -14 4 -25 9 -25 10 0 9 38 -2 44 -5 3 -8 -5 -7 -19z"/>
<path d="M5951 4114 c0 -11 3 -14 6 -6 3 7 2 16 -1 19 -3 4 -6 -2 -5 -13z"/>
<path d="M5306 4095 c-3 -8 -1 -15 4 -15 6 0 10 7 10 15 0 8 -2 15 -4 15 -2 0
-6 -7 -10 -15z"/>
<path d="M5281 4034 c0 -11 3 -14 6 -6 3 7 2 16 -1 19 -3 4 -6 -2 -5 -13z"/>
<path d="M5305 4001 c-3 -5 -1 -12 5 -16 5 -3 10 1 10 9 0 18 -6 21 -15 7z"/>
<path d="M4541 3958 c-14 -23 -5 -40 10 -18 9 13 10 12 5 -2 -3 -10 -1 -20 4
-23 16 -10 20 13 7 38 -13 25 -13 25 -26 5z"/>
<path d="M5277 3950 c3 -11 7 -20 9 -20 2 0 4 9 4 20 0 11 -4 20 -9 20 -5 0
-7 -9 -4 -20z"/>
<path d="M5367 3941 c-4 -17 -3 -21 5 -13 5 5 8 16 6 23 -3 8 -7 3 -11 -10z"/>
<path d="M5971 3733 c0 -5 4 -17 9 -28 8 -18 9 -17 9 8 1 15 -3 27 -9 27 -5 0
-10 -3 -9 -7z"/>
<path d="M5462 3700 c0 -14 2 -19 5 -12 2 6 2 18 0 25 -3 6 -5 1 -5 -13z"/>
<path d="M5491 3644 c0 -11 3 -14 6 -6 3 7 2 16 -1 19 -3 4 -6 -2 -5 -13z"/>
</g>
</svg>
